<svg version="1.1" viewBox="0.0 0.0 600.0 371.0" fill="none" stroke="none" stroke-linecap="square" stroke-miterlimit="10" width="600" height="371" xmlns:xlink="http://www.w3.org/1999/xlink" xmlns="http://www.w3.org/2000/svg"><path fill="#ffffff" d="M0 0L600.0 0L600.0 371.0L0 371.0L0 0Z" fill-rule="nonzero"/><path stroke="#333333" stroke-width="1.0" stroke-linecap="butt" d="M84.5 300.5L581.5 300.5" fill-rule="nonzero"/><path stroke="#cccccc" stroke-width="1.0" stroke-linecap="butt" d="M84.5 229.5L581.5 229.5" fill-rule="nonzero"/><path stroke="#cccccc" stroke-width="1.0" stroke-linecap="butt" d="M84.5 159.5L581.5 159.5" fill-rule="nonzero"/><path stroke="#cccccc" stroke-width="1.0" stroke-linecap="butt" d="M84.5 88.5L581.5 88.5" fill-rule="nonzero"/><clipPath id="id_0"><path d="M84.55 88.28333L581.45 88.28333L581.45 300.45L84.55 300.45L84.55 88.28333Z" clip-rule="nonzero"/></clipPath><path stroke="#000000" stroke-width="2.0" stroke-linecap="butt" stroke-opacity="0.0" clip-path="url(#id_0)" d="M168.0 300.0L138.0 300.0L138.0 268.0C138.0 266.89542 138.89543 266.0 140.0 266.0L166.0 266.0C167.10457 266.0 168.0 266.89542 168.0 268.0Z" fill-rule="nonzero"/><path fill="#4285f4" clip-path="url(#id_0)" d="M168.0 300.0L138.0 300.0L138.0 268.0C138.0 266.89542 138.89543 266.0 140.0 266.0L166.0 266.0C167.10457 266.0 168.0 266.89542 168.0 268.0Z" fill-rule="nonzero"/><path stroke="#000000" stroke-width="2.0" stroke-linecap="butt" stroke-opacity="0.0" clip-path="url(#id_0)" d="M316.0 300.0L286.0 300.0L286.0 300.0C286.0 300.0 286.0 300.0 286.0 300.0L316.0 300.0C316.0 300.0 316.0 300.0 316.0 300.0Z" fill-rule="nonzero"/><path fill="#4285f4" clip-path="url(#id_0)" d="M316.0 300.0L286.0 300.0L286.0 300.0C286.0 300.0 286.0 300.0 286.0 300.0L316.0 300.0C316.0 300.0 316.0 300.0 316.0 300.0Z" fill-rule="nonzero"/><path stroke="#000000" stroke-width="2.0" stroke-linecap="butt" stroke-opacity="0.0" clip-path="url(#id_0)" d="M464.0 300.0L434.0 300.0L434.0 300.0L464.0 300.0Z" fill-rule="nonzero"/><path fill="#4285f4" clip-path="url(#id_0)" d="M464.0 300.0L434.0 300.0L434.0 300.0L464.0 300.0Z" fill-rule="nonzero"/><path stroke="#000000" stroke-width="2.0" stroke-linecap="butt" stroke-opacity="0.0" clip-path="url(#id_0)" d="M200.0 300.0L170.0 300.0L170.0 90.0C170.0 88.89543 170.89543 88.0 172.0 88.0L198.0 88.0C199.10457 88.0 200.0 88.89543 200.0 90.0Z" fill-rule="nonzero"/><path fill="#ea4335" clip-path="url(#id_0)" d="M200.0 300.0L170.0 300.0L170.0 90.0C170.0 88.89543 170.89543 88.0 172.0 88.0L198.0 88.0C199.10457 88.0 200.0 88.89543 200.0 90.0Z" fill-rule="nonzero"/><path stroke="#000000" stroke-width="2.0" stroke-linecap="butt" stroke-opacity="0.0" clip-path="url(#id_0)" d="M348.0 300.0L318.0 300.0L318.0 211.0C318.0 209.89543 318.89542 209.0 320.0 209.0L346.0 209.0C347.10458 209.0 348.0 209.89543 348.0 211.0Z" fill-rule="nonzero"/><path fill="#ea4335" clip-path="url(#id_0)" d="M348.0 300.0L318.0 300.0L318.0 211.0C318.0 209.89543 318.89542 209.0 320.0 209.0L346.0 209.0C347.10458 209.0 348.0 209.89543 348.0 211.0Z" fill-rule="nonzero"/><path stroke="#000000" stroke-width="2.0" stroke-linecap="butt" stroke-opacity="0.0" clip-path="url(#id_0)" d="M496.0 300.0L466.0 300.0L466.0 296.0C466.0 294.89542 466.89542 294.0 468.0 294.0L494.0 294.0C495.10458 294.0 496.0 294.89542 496.0 296.0Z" fill-rule="nonzero"/><path fill="#ea4335" clip-path="url(#id_0)" d="M496.0 300.0L466.0 300.0L466.0 296.0C466.0 294.89542 466.89542 294.0 468.0 294.0L494.0 294.0C495.10458 294.0 496.0 294.89542 496.0 296.0Z" fill-rule="nonzero"/><path stroke="#000000" stroke-width="2.0" stroke-linecap="butt" stroke-opacity="0.0" clip-path="url(#id_0)" d="M232.0 300.0L202.0 300.0L202.0 119.0C202.0 117.89543 202.89543 117.0 204.0 117.0L230.0 117.0C231.10457 117.0 232.0 117.89543 232.0 119.0Z" fill-rule="nonzero"/><path fill="#fbbc04" clip-path="url(#id_0)" d="M232.0 300.0L202.0 300.0L202.0 119.0C202.0 117.89543 202.89543 117.0 204.0 117.0L230.0 117.0C231.10457 117.0 232.0 117.89543 232.0 119.0Z" fill-rule="nonzero"/><path stroke="#000000" stroke-width="2.0" stroke-linecap="butt" stroke-opacity="0.0" clip-path="url(#id_0)" d="M380.0 300.0L350.0 300.0L350.0 189.0C350.0 187.89543 350.89542 187.0 352.0 187.0L378.0 187.0C379.10458 187.0 380.0 187.89543 380.0 189.0Z" fill-rule="nonzero"/><path fill="#fbbc04" clip-path="url(#id_0)" d="M380.0 300.0L350.0 300.0L350.0 189.0C350.0 187.89543 350.89542 187.0 352.0 187.0L378.0 187.0C379.10458 187.0 380.0 187.89543 380.0 189.0Z" fill-rule="nonzero"/><path stroke="#000000" stroke-width="2.0" stroke-linecap="butt" stroke-opacity="0.0" clip-path="url(#id_0)" d="M528.0 300.0L498.0 300.0L498.0 296.0C498.0 294.89542 498.89542 294.0 500.0 294.0L526.0 294.0C527.10455 294.0 528.0 294.89542 528.0 296.0Z" fill-rule="nonzero"/><path fill="#fbbc04" clip-path="url(#id_0)" d="M528.0 300.0L498.0 300.0L498.0 296.0C498.0 294.89542 498.89542 294.0 500.0 294.0L526.0 294.0C527.10455 294.0 528.0 294.89542 528.0 296.0Z" fill-rule="nonzero"/><path fill="#000000" d="M317.875 349.45L317.875 340.85626L321.10938 340.85626Q322.09375 340.85626 322.6875 341.1219Q323.28125 341.3875 323.60938 341.9344Q323.95312 342.46564 323.95312 343.0594Q323.95312 343.60626 323.65625 344.09064Q323.35938 344.575 322.75 344.8719Q323.53125 345.10626 323.9375 345.66876Q324.35938 346.21564 324.35938 346.96564Q324.35938 347.5594 324.10938 348.09064Q323.85938 348.60626 323.48438 348.8875Q323.10938 349.16876 322.53125 349.3094Q321.96875 349.45 321.15625 349.45L317.875 349.45ZM319.01562 344.46564L320.875 344.46564Q321.625 344.46564 321.95312 344.3719Q322.39062 344.2469 322.60938 343.95Q322.82812 343.6375 322.82812 343.1844Q322.82812 342.7625 322.625 342.4344Q322.42188 342.10626 322.03125 341.9969Q321.65625 341.8719 320.73438 341.8719L319.01562 341.8719L319.01562 344.46564ZM319.01562 348.4344L321.15625 348.4344Q321.70312 348.4344 321.92188 348.3875Q322.32812 348.325 322.57812 348.16876Q322.84375 347.9969 323.01562 347.6844Q323.1875 347.3719 323.1875 346.96564Q323.1875 346.48126 322.9375 346.1219Q322.70312 345.7625 322.26562 345.6219Q321.82812 345.48126 321.0 345.48126L319.01562 345.48126L319.01562 348.4344ZM325.40625 346.34064Q325.40625 344.60626 326.35938 343.77814Q327.15625 343.09064 328.3125 343.09064Q329.59375 343.09064 330.40625 343.9344Q331.23438 344.7625 331.23438 346.2469Q331.23438 347.45 330.875 348.1375Q330.51562 348.825 329.8125 349.21564Q329.125 349.59064 328.3125 349.59064Q327.01562 349.59064 326.20312 348.7625Q325.40625 347.91876 325.40625 346.34064ZM326.48438 346.34064Q326.48438 347.52814 327.0 348.1219Q327.53125 348.71564 328.3125 348.71564Q329.10938 348.71564 329.625 348.1219Q330.14062 347.52814 330.14062 346.3094Q330.14062 345.15314 329.60938 344.5594Q329.09375 343.96564 328.3125 343.96564Q327.53125 343.96564 327.0 344.5594Q326.48438 345.1375 326.48438 346.34064ZM332.79688 342.075L332.79688 340.85626L333.85938 340.85626L333.85938 342.075L332.79688 342.075ZM332.79688 349.45L332.79688 343.23126L333.85938 343.23126L333.85938 349.45L332.79688 349.45ZM339.82812 349.45L339.82812 348.66876Q339.23438 349.59064 338.09375 349.59064Q337.34375 349.59064 336.71875 349.1844Q336.09375 348.7625 335.75 348.02814Q335.40625 347.29376 335.40625 346.34064Q335.40625 345.41876 335.71875 344.65314Q336.03125 343.8875 336.65625 343.4969Q337.28125 343.09064 338.04688 343.09064Q338.60938 343.09064 339.04688 343.325Q339.48438 343.5594 339.76562 343.9344L339.76562 340.85626L340.8125 340.85626L340.8125 349.45L339.82812 349.45ZM336.5 346.34064Q336.5 347.54376 337.0 348.1375Q337.5 348.71564 338.1875 348.71564Q338.875 348.71564 339.35938 348.15314Q339.84375 347.59064 339.84375 346.4344Q339.84375 345.15314 339.34375 344.5594Q338.85938 343.96564 338.14062 343.96564Q337.4375 343.96564 336.96875 344.54376Q336.5 345.10626 336.5 346.34064ZM342.375 347.59064L343.40625 347.4344Q343.5 348.0594 343.89062 348.3875Q344.29688 348.71564 345.03125 348.71564Q345.75 348.71564 346.09375 348.4344Q346.45312 348.1375 346.45312 347.73126Q346.45312 347.3719 346.14062 347.16876Q345.92188 347.02814 345.0625 346.8094Q343.90625 346.5125 343.45312 346.3094Q343.01562 346.09064 342.78125 345.71564Q342.54688 345.34064 342.54688 344.8719Q342.54688 344.46564 342.73438 344.10626Q342.92188 343.7469 343.25 343.5125Q343.5 343.34064 343.92188 343.21564Q344.34375 343.09064 344.84375 343.09064Q345.5625 343.09064 346.10938 343.3094Q346.67188 343.5125 346.9375 343.8719Q347.20312 344.23126 347.29688 344.825L346.26562 344.96564Q346.20312 344.4969 345.85938 344.23126Q345.53125 343.95 344.90625 343.95Q344.1875 343.95 343.875 344.2Q343.5625 344.4344 343.5625 344.7625Q343.5625 344.96564 343.6875 345.1219Q343.82812 345.29376 344.09375 345.40314Q344.25 345.46564 345.03125 345.66876Q346.15625 345.98126 346.59375 346.16876Q347.03125 346.35626 347.28125 346.71564Q347.53125 347.075 347.53125 347.6219Q347.53125 348.15314 347.21875 348.6219Q346.92188 349.075 346.34375 349.34064Q345.76562 349.59064 345.03125 349.59064Q343.8125 349.59064 343.17188 349.09064Q342.54688 348.575 342.375 347.59064Z" fill-rule="nonzero"/><path fill="#000000" d="M29.550013 211.3823L20.956263 211.3823L20.956263 205.58542L21.971888 205.58542L21.971888 210.24167L24.628138 210.24167L24.628138 206.21042L25.643763 206.21042L25.643763 210.24167L29.550013 210.24167L29.550013 211.3823ZM29.550013 204.4448L20.956263 204.4448L20.956263 201.1948Q20.956263 200.35104 21.034388 199.89792Q21.143763 199.2573 21.440638 198.83542Q21.737513 198.39792 22.268763 198.14792Q22.800013 197.8823 23.440638 197.8823Q24.534388 197.8823 25.300013 198.58542Q26.050013 199.27292 26.050013 201.10104L26.050013 203.30417L29.550013 203.30417L29.550013 204.4448ZM25.050013 203.30417L25.050013 201.08542Q25.050013 199.97604 24.643763 199.52292Q24.221888 199.05417 23.471888 199.05417Q22.940638 199.05417 22.565638 199.33542Q22.175013 199.60104 22.050013 200.03854Q21.971888 200.33542 21.971888 201.10104L21.971888 203.30417L25.050013 203.30417ZM26.784388 196.8198L26.690638 195.7573Q27.346888 195.67917 27.753138 195.39792Q28.159388 195.11667 28.425013 194.53854Q28.675013 193.9448 28.675013 193.21042Q28.675013 192.5698 28.487513 192.0698Q28.284388 191.5698 27.956263 191.33542Q27.612513 191.08542 27.221888 191.08542Q26.815638 191.08542 26.518763 191.3198Q26.206263 191.55417 26.003138 192.08542Q25.862513 192.4448 25.581263 193.6323Q25.300013 194.80417 25.050013 195.27292Q24.721888 195.89792 24.253138 196.1948Q23.768763 196.49167 23.175013 196.49167Q22.534388 196.49167 21.971888 196.1323Q21.393763 195.7573 21.112513 195.05417Q20.815638 194.33542 20.815638 193.47604Q20.815638 192.52292 21.128138 191.78854Q21.425013 191.05417 22.034388 190.66354Q22.628138 190.27292 23.378138 190.24167L23.456263 191.33542Q22.643763 191.42917 22.237513 191.9448Q21.815638 192.4448 21.815638 193.42917Q21.815638 194.46042 22.190638 194.92917Q22.565638 195.39792 23.096888 195.39792Q23.565638 195.39792 23.862513 195.0698Q24.159388 194.74167 24.471888 193.36667Q24.784388 191.97604 25.018763 191.46042Q25.378138 190.71042 25.909388 190.35104Q26.425013 189.99167 27.128138 189.99167Q27.815638 189.99167 28.425013 190.3823Q29.018763 190.77292 29.362513 191.5073Q29.690638 192.24167 29.690638 193.16354Q29.690638 194.33542 29.362513 195.1323Q29.018763 195.91354 28.331263 196.36667Q27.643763 196.80417 26.784388 196.8198Z" fill-rule="nonzero"/><path fill="#000000" d="M72.05 300.21564Q72.05 298.6844 72.3625 297.7625Q72.675 296.825 73.28438 296.325Q73.90938 295.825 74.84688 295.825Q75.53438 295.825 76.05 296.10626Q76.58125 296.3875 76.925 296.91876Q77.26875 297.4344 77.45625 298.1844Q77.64375 298.9344 77.64375 300.21564Q77.64375 301.73126 77.33125 302.65314Q77.03438 303.575 76.40938 304.09064Q75.8 304.59064 74.84688 304.59064Q73.6125 304.59064 72.89375 303.7Q72.05 302.6375 72.05 300.21564ZM73.12813 300.21564Q73.12813 302.325 73.62813 303.02814Q74.12813 303.73126 74.84688 303.73126Q75.58125 303.73126 76.06563 303.02814Q76.56563 302.325 76.56563 300.21564Q76.56563 298.09064 76.06563 297.40314Q75.58125 296.7 74.83125 296.7Q74.1125 296.7 73.675 297.3094Q73.12813 298.09064 73.12813 300.21564Z" fill-rule="nonzero"/><path fill="#000000" d="M58.05 231.47778L59.159374 231.38403Q59.284374 232.19653 59.721874 232.60278Q60.175 233.00903 60.815624 233.00903Q61.565624 233.00903 62.096874 232.43091Q62.628124 231.85278 62.628124 230.91528Q62.628124 230.00903 62.1125 229.49341Q61.6125 228.96216 60.784374 228.96216Q60.284374 228.96216 59.8625 229.19653Q59.45625 229.43091 59.221874 229.79028L58.2375 229.66528L59.065624 225.25903L63.346874 225.25903L63.346874 226.25903L59.909374 226.25903L59.45625 228.57153Q60.221874 228.02466 61.065624 228.02466Q62.190624 228.02466 62.95625 228.80591Q63.7375 229.58716 63.7375 230.82153Q63.7375 231.97778 63.065624 232.83716Q62.2375 233.86841 60.815624 233.86841Q59.64375 233.86841 58.89375 233.21216Q58.159374 232.55591 58.05 231.47778ZM65.05 229.49341Q65.05 227.96216 65.3625 227.04028Q65.675 226.10278 66.28438 225.60278Q66.90938 225.10278 67.84688 225.10278Q68.53438 225.10278 69.05 225.38403Q69.58125 225.66528 69.925 226.19653Q70.26875 226.71216 70.45625 227.46216Q70.64375 228.21216 70.64375 229.49341Q70.64375 231.00903 70.33125 231.93091Q70.03438 232.85278 69.40938 233.36841Q68.8 233.86841 67.84688 233.86841Q66.6125 233.86841 65.89375 232.97778Q65.05 231.91528 65.05 229.49341ZM66.12813 229.49341Q66.12813 231.60278 66.62813 232.30591Q67.12813 233.00903 67.84688 233.00903Q68.58125 233.00903 69.06563 232.30591Q69.56563 231.60278 69.56563 229.49341Q69.56563 227.36841 69.06563 226.68091Q68.58125 225.97778 67.83125 225.97778Q67.1125 225.97778 66.675 226.58716Q66.12813 227.36841 66.12813 229.49341ZM72.05 229.49341Q72.05 227.96216 72.3625 227.04028Q72.675 226.10278 73.28438 225.60278Q73.90938 225.10278 74.84688 225.10278Q75.53438 225.10278 76.05 225.38403Q76.58125 225.66528 76.925 226.19653Q77.26875 226.71216 77.45625 227.46216Q77.64375 228.21216 77.64375 229.49341Q77.64375 231.00903 77.33125 231.93091Q77.03438 232.85278 76.40938 233.36841Q75.8 233.86841 74.84688 233.86841Q73.6125 233.86841 72.89375 232.97778Q72.05 231.91528 72.05 229.49341ZM73.12813 229.49341Q73.12813 231.60278 73.62813 232.30591Q74.12813 233.00903 74.84688 233.00903Q75.58125 233.00903 76.06563 232.30591Q76.56563 231.60278 76.56563 229.49341Q76.56563 227.36841 76.06563 226.68091Q75.58125 225.97778 74.83125 225.97778Q74.1125 225.97778 73.675 226.58716Q73.12813 227.36841 73.12813 229.49341Z" fill-rule="nonzero"/><path fill="#000000" d="M55.01875 163.00555L53.971874 163.00555L53.971874 156.2868Q53.58125 156.64618 52.95625 157.02118Q52.346874 157.38055 51.8625 157.55243L51.8625 156.5368Q52.7375 156.11493 53.39375 155.5368Q54.065624 154.94305 54.346874 154.38055L55.01875 154.38055L55.01875 163.00555ZM58.05 158.77118Q58.05 157.23993 58.3625 156.31805Q58.675 155.38055 59.284374 154.88055Q59.909374 154.38055 60.846874 154.38055Q61.534374 154.38055 62.05 154.6618Q62.58125 154.94305 62.925 155.4743Q63.26875 155.98993 63.45625 156.73993Q63.64375 157.48993 63.64375 158.77118Q63.64375 160.2868 63.33125 161.20868Q63.034374 162.13055 62.409374 162.64618Q61.8 163.14618 60.846874 163.14618Q59.6125 163.14618 58.89375 162.25555Q58.05 161.19305 58.05 158.77118ZM59.128124 158.77118Q59.128124 160.88055 59.628124 161.58368Q60.128124 162.2868 60.846874 162.2868Q61.58125 162.2868 62.065624 161.58368Q62.565624 160.88055 62.565624 158.77118Q62.565624 156.64618 62.065624 155.95868Q61.58125 155.25555 60.83125 155.25555Q60.1125 155.25555 59.675 155.86493Q59.128124 156.64618 59.128124 158.77118ZM65.05 158.77118Q65.05 157.23993 65.3625 156.31805Q65.675 155.38055 66.28438 154.88055Q66.90938 154.38055 67.84688 154.38055Q68.53438 154.38055 69.05 154.6618Q69.58125 154.94305 69.925 155.4743Q70.26875 155.98993 70.45625 156.73993Q70.64375 157.48993 70.64375 158.77118Q70.64375 160.2868 70.33125 161.20868Q70.03438 162.13055 69.40938 162.64618Q68.8 163.14618 67.84688 163.14618Q66.6125 163.14618 65.89375 162.25555Q65.05 161.19305 65.05 158.77118ZM66.12813 158.77118Q66.12813 160.88055 66.62813 161.58368Q67.12813 162.2868 67.84688 162.2868Q68.58125 162.2868 69.06563 161.58368Q69.56563 160.88055 69.56563 158.77118Q69.56563 156.64618 69.06563 155.95868Q68.58125 155.25555 67.83125 155.25555Q67.1125 155.25555 66.675 155.86493Q66.12813 156.64618 66.12813 158.77118ZM72.05 158.77118Q72.05 157.23993 72.3625 156.31805Q72.675 155.38055 73.28438 154.88055Q73.90938 154.38055 74.84688 154.38055Q75.53438 154.38055 76.05 154.6618Q76.58125 154.94305 76.925 155.4743Q77.26875 155.98993 77.45625 156.73993Q77.64375 157.48993 77.64375 158.77118Q77.64375 160.2868 77.33125 161.20868Q77.03438 162.13055 76.40938 162.64618Q75.8 163.14618 74.84688 163.14618Q73.6125 163.14618 72.89375 162.25555Q72.05 161.19305 72.05 158.77118ZM73.12813 158.77118Q73.12813 160.88055 73.62813 161.58368Q74.12813 162.2868 74.84688 162.2868Q75.58125 162.2868 76.06563 161.58368Q76.56563 160.88055 76.56563 158.77118Q76.56563 156.64618 76.06563 155.95868Q75.58125 155.25555 74.83125 155.25555Q74.1125 155.25555 73.675 155.86493Q73.12813 156.64618 73.12813 158.77118Z" fill-rule="nonzero"/><path fill="#000000" d="M55.01875 92.28333L53.971874 92.28333L53.971874 85.56458Q53.58125 85.92396 52.95625 86.29896Q52.346874 86.65833 51.8625 86.83021L51.8625 85.81458Q52.7375 85.39271 53.39375 84.81458Q54.065624 84.22083 54.346874 83.65833L55.01875 83.65833L55.01875 92.28333ZM58.05 90.03333L59.159374 89.93958Q59.284374 90.75208 59.721874 91.15833Q60.175 91.56458 60.815624 91.56458Q61.565624 91.56458 62.096874 90.98646Q62.628124 90.40833 62.628124 89.47083Q62.628124 88.56458 62.1125 88.04896Q61.6125 87.51771 60.784374 87.51771Q60.284374 87.51771 59.8625 87.75208Q59.45625 87.98646 59.221874 88.34583L58.2375 88.22083L59.065624 83.81458L63.346874 83.81458L63.346874 84.81458L59.909374 84.81458L59.45625 87.12708Q60.221874 86.58021 61.065624 86.58021Q62.190624 86.58021 62.95625 87.36146Q63.7375 88.14271 63.7375 89.37708Q63.7375 90.53333 63.065624 91.39271Q62.2375 92.42396 60.815624 92.42396Q59.64375 92.42396 58.89375 91.76771Q58.159374 91.11146 58.05 90.03333ZM65.05 88.04896Q65.05 86.51771 65.3625 85.59583Q65.675 84.65833 66.28438 84.15833Q66.90938 83.65833 67.84688 83.65833Q68.53438 83.65833 69.05 83.93958Q69.58125 84.22083 69.925 84.75208Q70.26875 85.26771 70.45625 86.01771Q70.64375 86.76771 70.64375 88.04896Q70.64375 89.56458 70.33125 90.48646Q70.03438 91.40833 69.40938 91.92396Q68.8 92.42396 67.84688 92.42396Q66.6125 92.42396 65.89375 91.53333Q65.05 90.47083 65.05 88.04896ZM66.12813 88.04896Q66.12813 90.15833 66.62813 90.86146Q67.12813 91.56458 67.84688 91.56458Q68.58125 91.56458 69.06563 90.86146Q69.56563 90.15833 69.56563 88.04896Q69.56563 85.92396 69.06563 85.23646Q68.58125 84.53333 67.83125 84.53333Q67.1125 84.53333 66.675 85.14271Q66.12813 85.92396 66.12813 88.04896ZM72.05 88.04896Q72.05 86.51771 72.3625 85.59583Q72.675 84.65833 73.28438 84.15833Q73.90938 83.65833 74.84688 83.65833Q75.53438 83.65833 76.05 83.93958Q76.58125 84.22083 76.925 84.75208Q77.26875 85.26771 77.45625 86.01771Q77.64375 86.76771 77.64375 88.04896Q77.64375 89.56458 77.33125 90.48646Q77.03438 91.40833 76.40938 91.92396Q75.8 92.42396 74.84688 92.42396Q73.6125 92.42396 72.89375 91.53333Q72.05 90.47083 72.05 88.04896ZM73.12813 88.04896Q73.12813 90.15833 73.62813 90.86146Q74.12813 91.56458 74.84688 91.56458Q75.58125 91.56458 76.06563 90.86146Q76.56563 90.15833 76.56563 88.04896Q76.56563 85.92396 76.06563 85.23646Q75.58125 84.53333 74.83125 84.53333Q74.1125 84.53333 73.675 85.14271Q73.12813 85.92396 73.12813 88.04896Z" fill-rule="nonzero"/><path fill="#000000" d="M171.17165 315.2L172.28102 315.10626Q172.40602 315.91876 172.84352 316.325Q173.29665 316.73126 173.93727 316.73126Q174.68727 316.73126 175.21852 316.15314Q175.74977 315.575 175.74977 314.6375Q175.74977 313.73126 175.23415 313.21564Q174.73415 312.6844 173.90602 312.6844Q173.40602 312.6844 172.98415 312.91876Q172.5779 313.15314 172.34352 313.5125L171.35915 313.3875L172.18727 308.98126L176.46852 308.98126L176.46852 309.98126L173.03102 309.98126L172.5779 312.29376Q173.34352 311.7469 174.18727 311.7469Q175.31227 311.7469 176.0779 312.52814Q176.85915 313.3094 176.85915 314.54376Q176.85915 315.7 176.18727 316.5594Q175.35915 317.59064 173.93727 317.59064Q172.7654 317.59064 172.0154 316.9344Q171.28102 316.27814 171.17165 315.2ZM178.17165 313.21564Q178.17165 311.6844 178.48415 310.7625Q178.79665 309.825 179.40602 309.325Q180.03102 308.825 180.96852 308.825Q181.65602 308.825 182.17165 309.10626Q182.7029 309.3875 183.04665 309.91876Q183.3904 310.4344 183.5779 311.1844Q183.7654 311.9344 183.7654 313.21564Q183.7654 314.73126 183.4529 315.65314Q183.15602 316.575 182.53102 317.09064Q181.92165 317.59064 180.96852 317.59064Q179.73415 317.59064 179.0154 316.7Q178.17165 315.6375 178.17165 313.21564ZM179.24977 313.21564Q179.24977 315.325 179.74977 316.02814Q180.24977 316.73126 180.96852 316.73126Q181.7029 316.73126 182.18727 316.02814Q182.68727 315.325 182.68727 313.21564Q182.68727 311.09064 182.18727 310.40314Q181.7029 309.7 180.9529 309.7Q180.23415 309.7 179.79665 310.3094Q179.24977 311.09064 179.24977 313.21564ZM185.17165 313.21564Q185.17165 311.6844 185.48415 310.7625Q185.79665 309.825 186.40602 309.325Q187.03102 308.825 187.96852 308.825Q188.65602 308.825 189.17165 309.10626Q189.7029 309.3875 190.04665 309.91876Q190.3904 310.4344 190.5779 311.1844Q190.7654 311.9344 190.7654 313.21564Q190.7654 314.73126 190.4529 315.65314Q190.15602 316.575 189.53102 317.09064Q188.92165 317.59064 187.96852 317.59064Q186.73415 317.59064 186.0154 316.7Q185.17165 315.6375 185.17165 313.21564ZM186.24977 313.21564Q186.24977 315.325 186.74977 316.02814Q187.24977 316.73126 187.96852 316.73126Q188.7029 316.73126 189.18727 316.02814Q189.68727 315.325 189.68727 313.21564Q189.68727 311.09064 189.18727 310.40314Q188.7029 309.7 187.9529 309.7Q187.23415 309.7 186.79665 310.3094Q186.24977 311.09064 186.24977 313.21564ZM192.17165 313.21564Q192.17165 311.6844 192.48415 310.7625Q192.79665 309.825 193.40602 309.325Q194.03102 308.825 194.96852 308.825Q195.65602 308.825 196.17165 309.10626Q196.7029 309.3875 197.04665 309.91876Q197.3904 310.4344 197.5779 311.1844Q197.7654 311.9344 197.7654 313.21564Q197.7654 314.73126 197.4529 315.65314Q197.15602 316.575 196.53102 317.09064Q195.92165 317.59064 194.96852 317.59064Q193.73415 317.59064 193.0154 316.7Q192.17165 315.6375 192.17165 313.21564ZM193.24977 313.21564Q193.24977 315.325 193.74977 316.02814Q194.24977 316.73126 194.96852 316.73126Q195.7029 316.73126 196.18727 316.02814Q196.68727 315.325 196.68727 313.21564Q196.68727 311.09064 196.18727 310.40314Q195.7029 309.7 194.9529 309.7Q194.23415 309.7 193.79665 310.3094Q193.24977 311.09064 193.24977 313.21564Z" fill-rule="nonzero"/><path fill="#000000" d="M316.0 315.2L317.10938 315.10626Q317.23438 315.91876 317.67188 316.325Q318.125 316.73126 318.76562 316.73126Q319.51562 316.73126 320.04688 316.15314Q320.57812 315.575 320.57812 314.6375Q320.57812 313.73126 320.0625 313.21564Q319.5625 312.6844 318.73438 312.6844Q318.23438 312.6844 317.8125 312.91876Q317.40625 313.15314 317.17188 313.5125L316.1875 313.3875L317.01562 308.98126L321.29688 308.98126L321.29688 309.98126L317.85938 309.98126L317.40625 312.29376Q318.17188 311.7469 319.01562 311.7469Q320.14062 311.7469 320.90625 312.52814Q321.6875 313.3094 321.6875 314.54376Q321.6875 315.7 321.01562 316.5594Q320.1875 317.59064 318.76562 317.59064Q317.59375 317.59064 316.84375 316.9344Q316.10938 316.27814 316.0 315.2ZM323.0 313.21564Q323.0 311.6844 323.3125 310.7625Q323.625 309.825 324.23438 309.325Q324.85938 308.825 325.79688 308.825Q326.48438 308.825 327.0 309.10626Q327.53125 309.3875 327.875 309.91876Q328.21875 310.4344 328.40625 311.1844Q328.59375 311.9344 328.59375 313.21564Q328.59375 314.73126 328.28125 315.65314Q327.98438 316.575 327.35938 317.09064Q326.75 317.59064 325.79688 317.59064Q324.5625 317.59064 323.84375 316.7Q323.0 315.6375 323.0 313.21564ZM324.07812 313.21564Q324.07812 315.325 324.57812 316.02814Q325.07812 316.73126 325.79688 316.73126Q326.53125 316.73126 327.01562 316.02814Q327.51562 315.325 327.51562 313.21564Q327.51562 311.09064 327.01562 310.40314Q326.53125 309.7 325.78125 309.7Q325.0625 309.7 324.625 310.3094Q324.07812 311.09064 324.07812 313.21564ZM330.0 313.21564Q330.0 311.6844 330.3125 310.7625Q330.625 309.825 331.23438 309.325Q331.85938 308.825 332.79688 308.825Q333.48438 308.825 334.0 309.10626Q334.53125 309.3875 334.875 309.91876Q335.21875 310.4344 335.40625 311.1844Q335.59375 311.9344 335.59375 313.21564Q335.59375 314.73126 335.28125 315.65314Q334.98438 316.575 334.35938 317.09064Q333.75 317.59064 332.79688 317.59064Q331.5625 317.59064 330.84375 316.7Q330.0 315.6375 330.0 313.21564ZM331.07812 313.21564Q331.07812 315.325 331.57812 316.02814Q332.07812 316.73126 332.79688 316.73126Q333.53125 316.73126 334.01562 316.02814Q334.51562 315.325 334.51562 313.21564Q334.51562 311.09064 334.01562 310.40314Q333.53125 309.7 332.78125 309.7Q332.0625 309.7 331.625 310.3094Q331.07812 311.09064 331.07812 313.21564ZM337.0 313.21564Q337.0 311.6844 337.3125 310.7625Q337.625 309.825 338.23438 309.325Q338.85938 308.825 339.79688 308.825Q340.48438 308.825 341.0 309.10626Q341.53125 309.3875 341.875 309.91876Q342.21875 310.4344 342.40625 311.1844Q342.59375 311.9344 342.59375 313.21564Q342.59375 314.73126 342.28125 315.65314Q341.98438 316.575 341.35938 317.09064Q340.75 317.59064 339.79688 317.59064Q338.5625 317.59064 337.84375 316.7Q337.0 315.6375 337.0 313.21564ZM338.07812 313.21564Q338.07812 315.325 338.57812 316.02814Q339.07812 316.73126 339.79688 316.73126Q340.53125 316.73126 341.01562 316.02814Q341.51562 315.325 341.51562 313.21564Q341.51562 311.09064 341.01562 310.40314Q340.53125 309.7 339.78125 309.7Q339.0625 309.7 338.625 310.3094Q338.07812 311.09064 338.07812 313.21564ZM344.0 313.21564Q344.0 311.6844 344.3125 310.7625Q344.625 309.825 345.23438 309.325Q345.85938 308.825 346.79688 308.825Q347.48438 308.825 348.0 309.10626Q348.53125 309.3875 348.875 309.91876Q349.21875 310.4344 349.40625 311.1844Q349.59375 311.9344 349.59375 313.21564Q349.59375 314.73126 349.28125 315.65314Q348.98438 316.575 348.35938 317.09064Q347.75 317.59064 346.79688 317.59064Q345.5625 317.59064 344.84375 316.7Q344.0 315.6375 344.0 313.21564ZM345.07812 313.21564Q345.07812 315.325 345.57812 316.02814Q346.07812 316.73126 346.79688 316.73126Q347.53125 316.73126 348.01562 316.02814Q348.51562 315.325 348.51562 313.21564Q348.51562 311.09064 348.01562 310.40314Q347.53125 309.7 346.78125 309.7Q346.0625 309.7 345.625 310.3094Q345.07812 311.09064 345.07812 313.21564Z" fill-rule="nonzero"/><path fill="#000000" d="M460.82837 315.2L461.93774 315.10626Q462.06274 315.91876 462.50024 316.325Q462.95337 316.73126 463.594 316.73126Q464.344 316.73126 464.87524 316.15314Q465.4065 315.575 465.4065 314.6375Q465.4065 313.73126 464.89087 313.21564Q464.39087 312.6844 463.56274 312.6844Q463.06274 312.6844 462.64087 312.91876Q462.23462 313.15314 462.00024 313.5125L461.01587 313.3875L461.844 308.98126L466.12524 308.98126L466.12524 309.98126L462.68774 309.98126L462.23462 312.29376Q463.00024 311.7469 463.844 311.7469Q464.969 311.7469 465.73462 312.52814Q466.51587 313.3094 466.51587 314.54376Q466.51587 315.7 465.844 316.5594Q465.01587 317.59064 463.594 317.59064Q462.42212 317.59064 461.67212 316.9344Q460.93774 316.27814 460.82837 315.2ZM467.82837 313.21564Q467.82837 311.6844 468.14087 310.7625Q468.45337 309.825 469.06274 309.325Q469.68774 308.825 470.62524 308.825Q471.31274 308.825 471.82837 309.10626Q472.35962 309.3875 472.70337 309.91876Q473.04712 310.4344 473.23462 311.1844Q473.42212 311.9344 473.42212 313.21564Q473.42212 314.73126 473.10962 315.65314Q472.81274 316.575 472.18774 317.09064Q471.57837 317.59064 470.62524 317.59064Q469.39087 317.59064 468.67212 316.7Q467.82837 315.6375 467.82837 313.21564ZM468.9065 313.21564Q468.9065 315.325 469.4065 316.02814Q469.9065 316.73126 470.62524 316.73126Q471.35962 316.73126 471.844 316.02814Q472.344 315.325 472.344 313.21564Q472.344 311.09064 471.844 310.40314Q471.35962 309.7 470.60962 309.7Q469.89087 309.7 469.45337 310.3094Q468.9065 311.09064 468.9065 313.21564ZM474.82837 313.21564Q474.82837 311.6844 475.14087 310.7625Q475.45337 309.825 476.06274 309.325Q476.68774 308.825 477.62524 308.825Q478.31274 308.825 478.82837 309.10626Q479.35962 309.3875 479.70337 309.91876Q480.04712 310.4344 480.23462 311.1844Q480.42212 311.9344 480.42212 313.21564Q480.42212 314.73126 480.10962 315.65314Q479.81274 316.575 479.18774 317.09064Q478.57837 317.59064 477.62524 317.59064Q476.39087 317.59064 475.67212 316.7Q474.82837 315.6375 474.82837 313.21564ZM475.9065 313.21564Q475.9065 315.325 476.4065 316.02814Q476.9065 316.73126 477.62524 316.73126Q478.35962 316.73126 478.844 316.02814Q479.344 315.325 479.344 313.21564Q479.344 311.09064 478.844 310.40314Q478.35962 309.7 477.60962 309.7Q476.89087 309.7 476.45337 310.3094Q475.9065 311.09064 475.9065 313.21564ZM481.82837 313.21564Q481.82837 311.6844 482.14087 310.7625Q482.45337 309.825 483.06274 309.325Q483.68774 308.825 484.62524 308.825Q485.31274 308.825 485.82837 309.10626Q486.35962 309.3875 486.70337 309.91876Q487.04712 310.4344 487.23462 311.1844Q487.42212 311.9344 487.42212 313.21564Q487.42212 314.73126 487.10962 315.65314Q486.81274 316.575 486.18774 317.09064Q485.57837 317.59064 484.62524 317.59064Q483.39087 317.59064 482.67212 316.7Q481.82837 315.6375 481.82837 313.21564ZM482.9065 313.21564Q482.9065 315.325 483.4065 316.02814Q483.9065 316.73126 484.62524 316.73126Q485.35962 316.73126 485.844 316.02814Q486.344 315.325 486.344 313.21564Q486.344 311.09064 485.844 310.40314Q485.35962 309.7 484.60962 309.7Q483.89087 309.7 483.45337 310.3094Q482.9065 311.09064 482.9065 313.21564ZM488.82837 313.21564Q488.82837 311.6844 489.14087 310.7625Q489.45337 309.825 490.06274 309.325Q490.68774 308.825 491.62524 308.825Q492.31274 308.825 492.82837 309.10626Q493.35962 309.3875 493.70337 309.91876Q494.04712 310.4344 494.23462 311.1844Q494.42212 311.9344 494.42212 313.21564Q494.42212 314.73126 494.10962 315.65314Q493.81274 316.575 493.18774 317.09064Q492.57837 317.59064 491.62524 317.59064Q490.39087 317.59064 489.67212 316.7Q488.82837 315.6375 488.82837 313.21564ZM489.9065 313.21564Q489.9065 315.325 490.4065 316.02814Q490.9065 316.73126 491.62524 316.73126Q492.35962 316.73126 492.844 316.02814Q493.344 315.325 493.344 313.21564Q493.344 311.09064 492.844 310.40314Q492.35962 309.7 491.60962 309.7Q490.89087 309.7 490.45337 310.3094Q489.9065 311.09064 489.9065 313.21564ZM495.82837 313.21564Q495.82837 311.6844 496.14087 310.7625Q496.45337 309.825 497.06274 309.325Q497.68774 308.825 498.62524 308.825Q499.31274 308.825 499.82837 309.10626Q500.35962 309.3875 500.70337 309.91876Q501.04712 310.4344 501.23462 311.1844Q501.42212 311.9344 501.42212 313.21564Q501.42212 314.73126 501.10962 315.65314Q500.81274 316.575 500.18774 317.09064Q499.57837 317.59064 498.62524 317.59064Q497.39087 317.59064 496.67212 316.7Q495.82837 315.6375 495.82837 313.21564ZM496.9065 313.21564Q496.9065 315.325 497.4065 316.02814Q497.9065 316.73126 498.62524 316.73126Q499.35962 316.73126 499.844 316.02814Q500.344 315.325 500.344 313.21564Q500.344 311.09064 499.844 310.40314Q499.35962 309.7 498.60962 309.7Q497.89087 309.7 497.45337 310.3094Q496.9065 311.09064 496.9065 313.21564Z" fill-rule="nonzero"/><path fill="#4285f4" d="M191.0 56.916668C191.0 56.364384 191.44771 55.916668 192.0 55.916668L202.0 55.916668C202.55229 55.916668 203.0 56.364384 203.0 56.916668L203.0 66.916664C203.0 67.46895 202.55229 67.916664 202.0 67.916664L192.0 67.916664C191.44771 67.916664 191.0 67.46895 191.0 66.916664Z" fill-rule="nonzero"/><path fill="#1a1a1a" d="M211.92188 65.916664L211.92188 57.322914L213.07812 57.322914L217.59375 64.072914L217.59375 57.322914L218.6875 57.322914L218.6875 65.916664L217.51562 65.916664L213.0 59.166664L213.0 65.916664L211.92188 65.916664ZM224.85938 65.15104Q224.26562 65.65104 223.71875 65.854164Q223.1875 66.05729 222.5625 66.05729Q221.53125 66.05729 220.98438 65.55729Q220.4375 65.05729 220.4375 64.27604Q220.4375 63.822914 220.64062 63.447914Q220.84375 63.05729 221.1875 62.83854Q221.53125 62.604164 221.95312 62.49479Q222.25 62.40104 222.89062 62.322914Q224.15625 62.18229 224.76562 61.96354Q224.76562 61.74479 224.76562 61.697914Q224.76562 61.041664 224.46875 60.77604Q224.0625 60.43229 223.26562 60.43229Q222.53125 60.43229 222.17188 60.697914Q221.8125 60.947914 221.64062 61.604164L220.60938 61.46354Q220.75 60.80729 221.07812 60.40104Q221.40625 59.99479 222.01562 59.77604Q222.625 59.55729 223.42188 59.55729Q224.21875 59.55729 224.71875 59.74479Q225.21875 59.93229 225.45312 60.21354Q225.6875 60.49479 225.78125 60.93229Q225.82812 61.197914 225.82812 61.90104L225.82812 63.30729Q225.82812 64.77604 225.89062 65.166664Q225.96875 65.55729 226.17188 65.916664L225.0625 65.916664Q224.90625 65.58854 224.85938 65.15104ZM224.76562 62.791664Q224.1875 63.02604 223.04688 63.197914Q222.39062 63.291664 222.125 63.416664Q221.85938 63.52604 221.70312 63.74479Q221.5625 63.96354 221.5625 64.24479Q221.5625 64.666664 221.875 64.947914Q222.20312 65.229164 222.8125 65.229164Q223.42188 65.229164 223.89062 64.96354Q224.375 64.697914 224.59375 64.229164Q224.76562 63.86979 224.76562 63.18229L224.76562 62.791664ZM227.79688 58.541664L227.79688 57.322914L228.85938 57.322914L228.85938 58.541664L227.79688 58.541664ZM227.79688 65.916664L227.79688 59.697914L228.85938 59.697914L228.85938 65.916664L227.79688 65.916664ZM232.51562 65.916664L230.15625 59.697914L231.26562 59.697914L232.60938 63.416664Q232.8125 64.02604 233.0 64.666664Q233.14062 64.18229 233.39062 63.49479L234.78125 59.697914L235.85938 59.697914L233.5 65.916664L232.51562 65.916664ZM240.04688 63.916664L241.14062 64.041664Q240.89062 64.99479 240.1875 65.52604Q239.48438 66.05729 238.40625 66.05729Q237.04688 66.05729 236.23438 65.21354Q235.4375 64.36979 235.4375 62.854164Q235.4375 61.291664 236.25 60.43229Q237.0625 59.55729 238.34375 59.55729Q239.59375 59.55729 240.375 60.40104Q241.17188 61.24479 241.17188 62.791664Q241.17188 62.885414 241.17188 63.072914L236.53125 63.072914Q236.59375 64.104164 237.10938 64.65104Q237.625 65.18229 238.40625 65.18229Q238.98438 65.18229 239.39062 64.885414Q239.8125 64.572914 240.04688 63.916664ZM236.59375 62.21354L240.0625 62.21354Q240.0 61.416664 239.67188 61.02604Q239.15625 60.416664 238.35938 60.416664Q237.625 60.416664 237.125 60.90104Q236.64062 61.385414 236.59375 62.21354Z" fill-rule="nonzero"/><path fill="#ea4335" d="M258.0 56.916668C258.0 56.364384 258.44772 55.916668 259.0 55.916668L269.0 55.916668C269.55228 55.916668 270.0 56.364384 270.0 56.916668L270.0 66.916664C270.0 67.46895 269.55228 67.916664 269.0 67.916664L259.0 67.916664C258.44772 67.916664 258.0 67.46895 258.0 66.916664Z" fill-rule="nonzero"/><path fill="#1a1a1a" d="M284.5625 57.322914L285.70312 57.322914L285.70312 62.291664Q285.70312 63.58854 285.40625 64.354164Q285.10938 65.104164 284.34375 65.58854Q283.57812 66.05729 282.34375 66.05729Q281.14062 66.05729 280.35938 65.65104Q279.59375 65.229164 279.26562 64.447914Q278.9375 63.65104 278.9375 62.291664L278.9375 57.322914L280.07812 57.322914L280.07812 62.27604Q280.07812 63.40104 280.28125 63.93229Q280.5 64.46354 281.0 64.760414Q281.51562 65.041664 282.25 65.041664Q283.5 65.041664 284.03125 64.479164Q284.5625 63.90104 284.5625 62.27604L284.5625 57.322914ZM287.79688 65.916664L287.79688 59.697914L288.73438 59.697914L288.73438 60.572914Q289.42188 59.55729 290.71875 59.55729Q291.28125 59.55729 291.75 59.760414Q292.23438 59.96354 292.46875 60.291664Q292.70312 60.61979 292.79688 61.05729Q292.84375 61.354164 292.84375 62.08854L292.84375 65.916664L291.79688 65.916664L291.79688 62.135414Q291.79688 61.479164 291.67188 61.166664Q291.54688 60.854164 291.23438 60.666664Q290.92188 60.46354 290.5 60.46354Q289.82812 60.46354 289.32812 60.90104Q288.84375 61.322914 288.84375 62.510414L288.84375 65.916664L287.79688 65.916664ZM294.79688 58.541664L294.79688 57.322914L295.85938 57.322914L295.85938 58.541664L294.79688 58.541664ZM294.79688 65.916664L294.79688 59.697914L295.85938 59.697914L295.85938 65.916664L294.79688 65.916664ZM298.04688 65.916664L298.04688 60.510414L297.10938 60.510414L297.10938 59.697914L298.04688 59.697914L298.04688 59.02604Q298.04688 58.40104 298.15625 58.104164Q298.3125 57.68229 298.6875 57.43229Q299.07812 57.18229 299.76562 57.18229Q300.21875 57.18229 300.75 57.291664L300.59375 58.197914Q300.26562 58.15104 299.96875 58.15104Q299.48438 58.15104 299.28125 58.354164Q299.09375 58.55729 299.09375 59.11979L299.09375 59.697914L300.3125 59.697914L300.3125 60.510414L299.09375 60.510414L299.09375 65.916664L298.04688 65.916664ZM300.40625 62.80729Q300.40625 61.072914 301.35938 60.24479Q302.15625 59.55729 303.3125 59.55729Q304.59375 59.55729 305.40625 60.40104Q306.23438 61.229164 306.23438 62.71354Q306.23438 63.916664 305.875 64.604164Q305.51562 65.291664 304.8125 65.68229Q304.125 66.05729 303.3125 66.05729Q302.01562 66.05729 301.20312 65.229164Q300.40625 64.385414 300.40625 62.80729ZM301.48438 62.80729Q301.48438 63.99479 302.0 64.58854Q302.53125 65.18229 303.3125 65.18229Q304.10938 65.18229 304.625 64.58854Q305.14062 63.99479 305.14062 62.77604Q305.14062 61.61979 304.60938 61.02604Q304.09375 60.43229 303.3125 60.43229Q302.53125 60.43229 302.0 61.02604Q301.48438 61.604164 301.48438 62.80729ZM307.78125 65.916664L307.78125 59.697914L308.73438 59.697914L308.73438 60.635414Q309.09375 59.979164 309.39062 59.77604Q309.70312 59.55729 310.07812 59.55729Q310.60938 59.55729 311.15625 59.885414L310.79688 60.86979Q310.40625 60.635414 310.03125 60.635414Q309.67188 60.635414 309.39062 60.854164Q309.125 61.05729 309.01562 61.43229Q308.82812 61.99479 308.82812 62.65104L308.82812 65.916664L307.78125 65.916664ZM311.79688 65.916664L311.79688 59.697914L312.73438 59.697914L312.73438 60.572914Q313.03125 60.104164 313.51562 59.83854Q314.0 59.55729 314.625 59.55729Q315.3125 59.55729 315.75 59.83854Q316.20312 60.11979 316.375 60.635414Q317.125 59.55729 318.29688 59.55729Q319.23438 59.55729 319.71875 60.072914Q320.21875 60.572914 320.21875 61.65104L320.21875 65.916664L319.17188 65.916664L319.17188 61.99479Q319.17188 61.36979 319.0625 61.08854Q318.96875 60.80729 318.70312 60.635414Q318.4375 60.46354 318.0625 60.46354Q317.40625 60.46354 316.96875 60.90104Q316.54688 61.33854 316.54688 62.30729L316.54688 65.916664L315.48438 65.916664L315.48438 61.86979Q315.48438 61.166664 315.21875 60.822914Q314.96875 60.46354 314.39062 60.46354Q313.9375 60.46354 313.5625 60.697914Q313.1875 60.93229 313.01562 61.385414Q312.84375 61.83854 312.84375 62.68229L312.84375 65.916664L311.79688 65.916664Z" fill-rule="nonzero"/><path fill="#fbbc04" d="M338.0 56.916668C338.0 56.364384 338.44772 55.916668 339.0 55.916668L349.0 55.916668C349.55228 55.916668 350.0 56.364384 350.0 56.916668L350.0 66.916664C350.0 67.46895 349.55228 67.916664 349.0 67.916664L339.0 67.916664C338.44772 67.916664 338.0 67.46895 338.0 66.916664Z" fill-rule="nonzero"/><path fill="#1a1a1a" d="M365.0625 62.90104L366.1875 63.197914Q365.82812 64.58854 364.90625 65.322914Q363.98438 66.05729 362.64062 66.05729Q361.25 66.05729 360.375 65.49479Q359.5 64.93229 359.04688 63.86979Q358.59375 62.791664 358.59375 61.55729Q358.59375 60.21354 359.10938 59.21354Q359.625 58.21354 360.5625 57.697914Q361.51562 57.18229 362.65625 57.18229Q363.9375 57.18229 364.8125 57.83854Q365.70312 58.49479 366.04688 59.68229L364.92188 59.947914Q364.625 59.010414 364.04688 58.58854Q363.48438 58.15104 362.625 58.15104Q361.64062 58.15104 360.96875 58.635414Q360.3125 59.104164 360.03125 59.90104Q359.76562 60.697914 359.76562 61.55729Q359.76562 62.65104 360.07812 63.46354Q360.40625 64.27604 361.07812 64.68229Q361.75 65.08854 362.54688 65.08854Q363.5 65.08854 364.15625 64.541664Q364.82812 63.99479 365.0625 62.90104ZM367.40625 62.80729Q367.40625 61.072914 368.35938 60.24479Q369.15625 59.55729 370.3125 59.55729Q371.59375 59.55729 372.40625 60.40104Q373.23438 61.229164 373.23438 62.71354Q373.23438 63.916664 372.875 64.604164Q372.51562 65.291664 371.8125 65.68229Q371.125 66.05729 370.3125 66.05729Q369.01562 66.05729 368.20312 65.229164Q367.40625 64.385414 367.40625 62.80729ZM368.48438 62.80729Q368.48438 63.99479 369.0 64.58854Q369.53125 65.18229 370.3125 65.18229Q371.10938 65.18229 371.625 64.58854Q372.14062 63.99479 372.14062 62.77604Q372.14062 61.61979 371.60938 61.02604Q371.09375 60.43229 370.3125 60.43229Q369.53125 60.43229 369.0 61.02604Q368.48438 61.604164 368.48438 62.80729ZM374.79688 65.916664L374.79688 57.322914L375.84375 57.322914L375.84375 60.40104Q376.57812 59.55729 377.70312 59.55729Q378.40625 59.55729 378.90625 59.83854Q379.42188 60.104164 379.64062 60.58854Q379.85938 61.05729 379.85938 61.979164L379.85938 65.916664L378.8125 65.916664L378.8125 61.979164Q378.8125 61.18229 378.46875 60.822914Q378.125 60.46354 377.5 60.46354Q377.03125 60.46354 376.60938 60.71354Q376.20312 60.947914 376.01562 61.36979Q375.84375 61.77604 375.84375 62.510414L375.84375 65.916664L374.79688 65.916664ZM386.04688 63.916664L387.14062 64.041664Q386.89062 64.99479 386.1875 65.52604Q385.48438 66.05729 384.40625 66.05729Q383.04688 66.05729 382.23438 65.21354Q381.4375 64.36979 381.4375 62.854164Q381.4375 61.291664 382.25 60.43229Q383.0625 59.55729 384.34375 59.55729Q385.59375 59.55729 386.375 60.40104Q387.17188 61.24479 387.17188 62.791664Q387.17188 62.885414 387.17188 63.072914L382.53125 63.072914Q382.59375 64.104164 383.10938 64.65104Q383.625 65.18229 384.40625 65.18229Q384.98438 65.18229 385.39062 64.885414Q385.8125 64.572914 386.04688 63.916664ZM382.59375 62.21354L386.0625 62.21354Q386.0 61.416664 385.67188 61.02604Q385.15625 60.416664 384.35938 60.416664Q383.625 60.416664 383.125 60.90104Q382.64062 61.385414 382.59375 62.21354ZM388.78125 65.916664L388.78125 59.697914L389.73438 59.697914L389.73438 60.635414Q390.09375 59.979164 390.39062 59.77604Q390.70312 59.55729 391.07812 59.55729Q391.60938 59.55729 392.15625 59.885414L391.79688 60.86979Q391.40625 60.635414 391.03125 60.635414Q390.67188 60.635414 390.39062 60.854164Q390.125 61.05729 390.01562 61.43229Q389.82812 61.99479 389.82812 62.65104L389.82812 65.916664L388.78125 65.916664ZM397.04688 63.916664L398.14062 64.041664Q397.89062 64.99479 397.1875 65.52604Q396.48438 66.05729 395.40625 66.05729Q394.04688 66.05729 393.23438 65.21354Q392.4375 64.36979 392.4375 62.854164Q392.4375 61.291664 393.25 60.43229Q394.0625 59.55729 395.34375 59.55729Q396.59375 59.55729 397.375 60.40104Q398.17188 61.24479 398.17188 62.791664Q398.17188 62.885414 398.17188 63.072914L393.53125 63.072914Q393.59375 64.104164 394.10938 64.65104Q394.625 65.18229 395.40625 65.18229Q395.98438 65.18229 396.39062 64.885414Q396.8125 64.572914 397.04688 63.916664ZM393.59375 62.21354L397.0625 62.21354Q397.0 61.416664 396.67188 61.02604Q396.15625 60.416664 395.35938 60.416664Q394.625 60.416664 394.125 60.90104Q393.64062 61.385414 393.59375 62.21354ZM399.79688 65.916664L399.79688 59.697914L400.73438 59.697914L400.73438 60.572914Q401.42188 59.55729 402.71875 59.55729Q403.28125 59.55729 403.75 59.760414Q404.23438 59.96354 404.46875 60.291664Q404.70312 60.61979 404.79688 61.05729Q404.84375 61.354164 404.84375 62.08854L404.84375 65.916664L403.79688 65.916664L403.79688 62.135414Q403.79688 61.479164 403.67188 61.166664Q403.54688 60.854164 403.23438 60.666664Q402.92188 60.46354 402.5 60.46354Q401.82812 60.46354 401.32812 60.90104Q400.84375 61.322914 400.84375 62.510414L400.84375 65.916664L399.79688 65.916664ZM409.09375 64.979164L409.25 65.90104Q408.79688 65.99479 408.45312 65.99479Q407.875 65.99479 407.5625 65.822914Q407.25 65.635414 407.10938 65.33854Q406.98438 65.041664 406.98438 64.08854L406.98438 60.510414L406.21875 60.510414L406.21875 59.697914L406.98438 59.697914L406.98438 58.15104L408.03125 57.52604L408.03125 59.697914L409.09375 59.697914L409.09375 60.510414L408.03125 60.510414L408.03125 64.15104Q408.03125 64.604164 408.07812 64.729164Q408.14062 64.854164 408.26562 64.93229Q408.39062 65.010414 408.625 65.010414Q408.8125 65.010414 409.09375 64.979164Z" fill-rule="nonzero"/><path fill="#757575" d="M24.190624 37.55L18.64375 23.2375L20.690624 23.2375L24.409374 33.628124Q24.8625 34.878124 25.159374 35.971874Q25.4875 34.8 25.940624 33.628124L29.8 23.2375L31.7375 23.2375L26.128124 37.55L24.190624 37.55ZM32.878124 25.253124L32.878124 23.2375L34.64375 23.2375L34.64375 25.253124L32.878124 25.253124ZM32.878124 37.55L32.878124 27.175L34.64375 27.175L34.64375 37.55L32.878124 37.55ZM36.159374 34.45625L37.909374 34.175Q38.05 35.221874 38.721874 35.784374Q39.39375 36.33125 40.596874 36.33125Q41.8 36.33125 42.378124 35.846874Q42.971874 35.346874 42.971874 34.690624Q42.971874 34.096874 42.45625 33.753124Q42.096874 33.51875 40.659374 33.159374Q38.721874 32.659374 37.971874 32.315624Q37.2375 31.95625 36.846874 31.33125Q36.45625 30.690624 36.45625 29.925Q36.45625 29.2375 36.76875 28.64375Q37.096874 28.05 37.64375 27.659374Q38.05 27.3625 38.753124 27.159374Q39.471874 26.940624 40.284374 26.940624Q41.503124 26.940624 42.425 27.3Q43.346874 27.64375 43.784374 28.253124Q44.221874 28.846874 44.39375 29.846874L42.675 30.08125Q42.55 29.284374 41.9875 28.846874Q41.425 28.39375 40.409374 28.39375Q39.190624 28.39375 38.675 28.8Q38.159374 29.190624 38.159374 29.721874Q38.159374 30.065624 38.378124 30.346874Q38.58125 30.628124 39.05 30.815624Q39.315624 30.909374 40.596874 31.253124Q42.471874 31.753124 43.20625 32.08125Q43.940624 32.39375 44.3625 33.003124Q44.784374 33.596874 44.784374 34.503124Q44.784374 35.378124 44.26875 36.159374Q43.753124 36.940624 42.784374 37.3625Q41.815624 37.784374 40.596874 37.784374Q38.58125 37.784374 37.51875 36.940624Q36.45625 36.096874 36.159374 34.45625ZM53.659374 37.55L53.659374 36.01875Q52.45625 37.784374 50.378124 37.784374Q49.45625 37.784374 48.659374 37.440624Q47.8625 37.08125 47.471874 36.55Q47.096874 36.01875 46.940624 35.2375Q46.83125 34.721874 46.83125 33.596874L46.83125 27.175L48.58125 27.175L48.58125 32.925Q48.58125 34.3 48.690624 34.784374Q48.8625 35.471874 49.39375 35.878124Q49.940624 36.26875 50.721874 36.26875Q51.51875 36.26875 52.20625 35.8625Q52.909374 35.45625 53.190624 34.76875Q53.4875 34.065624 53.4875 32.7375L53.4875 27.175L55.2375 27.175L55.2375 37.55L53.659374 37.55ZM63.64375 36.26875Q62.659374 37.096874 61.753124 37.440624Q60.846874 37.784374 59.815624 37.784374Q58.1125 37.784374 57.190624 36.95625Q56.26875 36.1125 56.26875 34.815624Q56.26875 34.05 56.6125 33.425Q56.971874 32.8 57.534374 32.425Q58.096874 32.034374 58.8 31.83125Q59.315624 31.70625 60.3625 31.565624Q62.4875 31.315624 63.4875 30.971874Q63.503124 30.6125 63.503124 30.503124Q63.503124 29.440624 63.003124 28.9875Q62.33125 28.39375 61.003124 28.39375Q59.753124 28.39375 59.159374 28.83125Q58.58125 29.26875 58.3 30.378124L56.58125 30.14375Q56.815624 29.034374 57.346874 28.3625Q57.878124 27.675 58.89375 27.315624Q59.909374 26.940624 61.253124 26.940624Q62.58125 26.940624 63.409374 27.253124Q64.2375 27.565624 64.62813 28.05Q65.01875 28.51875 65.175 29.2375Q65.26875 29.690624 65.26875 30.8625L65.26875 33.20625Q65.26875 35.659374 65.37813 36.315624Q65.4875 36.95625 65.83125 37.55L63.9875 37.55Q63.721874 37.003124 63.64375 36.26875ZM63.4875 32.346874Q62.534374 32.7375 60.6125 33.003124Q59.534374 33.159374 59.08125 33.3625Q58.64375 33.55 58.39375 33.925Q58.14375 34.3 58.14375 34.76875Q58.14375 35.471874 58.675 35.940624Q59.20625 36.409374 60.2375 36.409374Q61.253124 36.409374 62.034374 35.971874Q62.83125 35.51875 63.20625 34.753124Q63.4875 34.14375 63.4875 32.9875L63.4875 32.346874ZM67.83125 37.55L67.83125 23.2375L69.58125 23.2375L69.58125 37.55L67.83125 37.55ZM71.87813 25.253124L71.87813 23.2375L73.64375 23.2375L73.64375 25.253124L71.87813 25.253124ZM71.87813 37.55L71.87813 27.175L73.64375 27.175L73.64375 37.55L71.87813 37.55ZM74.94063 37.55L74.94063 36.128124L81.55 28.55Q80.425 28.596874 79.56563 28.596874L75.33125 28.596874L75.33125 27.175L83.81563 27.175L83.81563 28.346874L78.19063 34.925L77.1125 36.128124Q78.28438 36.034374 79.33125 36.034374L84.12813 36.034374L84.12813 37.55L74.94063 37.55ZM91.97188 34.20625L93.78438 34.440624Q93.3625 36.01875 92.19063 36.909374Q91.03438 37.784374 89.22188 37.784374Q86.95625 37.784374 85.6125 36.39375Q84.28438 34.9875 84.28438 32.45625Q84.28438 29.83125 85.62813 28.39375Q86.97188 26.940624 89.12813 26.940624Q91.20625 26.940624 92.51875 28.3625Q93.84688 29.76875 93.84688 32.346874Q93.84688 32.503124 93.83125 32.815624L86.09688 32.815624Q86.19063 34.51875 87.06563 35.425Q87.94063 36.33125 89.2375 36.33125Q90.20625 36.33125 90.87813 35.83125Q91.56563 35.315624 91.97188 34.20625ZM86.19063 31.3625L91.9875 31.3625Q91.87813 30.065624 91.33125 29.409374Q90.4875 28.39375 89.14375 28.39375Q87.94063 28.39375 87.1125 29.20625Q86.28438 30.003124 86.19063 31.3625ZM101.51875 30.58125Q101.51875 27.01875 103.425 25.003124Q105.34688 22.971874 108.37813 22.971874Q110.3625 22.971874 111.94063 23.925Q113.53438 24.878124 114.3625 26.58125Q115.20625 28.26875 115.20625 30.409374Q115.20625 32.58125 114.33125 34.3Q113.45625 36.01875 111.83125 36.909374Q110.22188 37.8 108.3625 37.8Q106.34688 37.8 104.75313 36.83125Q103.15938 35.846874 102.33125 34.159374Q101.51875 32.45625 101.51875 30.58125ZM103.47188 30.6125Q103.47188 33.190624 104.8625 34.690624Q106.25313 36.175 108.34688 36.175Q110.4875 36.175 111.8625 34.675Q113.25313 33.159374 113.25313 30.39375Q113.25313 28.659374 112.65938 27.3625Q112.08125 26.05 110.94063 25.33125Q109.8 24.6125 108.37813 24.6125Q106.37813 24.6125 104.925 26.003124Q103.47188 27.378124 103.47188 30.6125ZM118.28438 37.55L118.28438 28.55L116.7375 28.55L116.7375 27.175L118.28438 27.175L118.28438 26.08125Q118.28438 25.034374 118.47188 24.51875Q118.72188 23.83125 119.3625 23.409374Q120.00313 22.9875 121.15938 22.9875Q121.90938 22.9875 122.8 23.159374L122.53438 24.690624Q121.9875 24.596874 121.50313 24.596874Q120.70625 24.596874 120.3625 24.940624Q120.03438 25.284374 120.03438 26.221874L120.03438 27.175L122.06563 27.175L122.06563 28.55L120.03438 28.55L120.03438 37.55L118.28438 37.55ZM124.28438 37.55L124.28438 28.55L122.7375 28.55L122.7375 27.175L124.28438 27.175L124.28438 26.08125Q124.28438 25.034374 124.47188 24.51875Q124.72188 23.83125 125.3625 23.409374Q126.00313 22.9875 127.15938 22.9875Q127.90938 22.9875 128.8 23.159374L128.53438 24.690624Q127.9875 24.596874 127.50313 24.596874Q126.70625 24.596874 126.3625 24.940624Q126.03438 25.284374 126.03438 26.221874L126.03438 27.175L128.06563 27.175L128.06563 28.55L126.03438 28.55L126.03438 37.55L124.28438 37.55Z" fill-rule="nonzero"/></svg>