<svg version="1.1" viewBox="0.0 0.0 600.0 371.0" fill="none" stroke="none" stroke-linecap="square" stroke-miterlimit="10" width="600" height="371" xmlns:xlink="http://www.w3.org/1999/xlink" xmlns="http://www.w3.org/2000/svg"><path fill="#ffffff" d="M0 0L600.0 0L600.0 371.0L0 371.0L0 0Z" fill-rule="nonzero"/><path stroke="#333333" stroke-width="1.0" stroke-linecap="butt" d="M77.5 300.5L581.5 300.5" fill-rule="nonzero"/><path stroke="#cccccc" stroke-width="1.0" stroke-linecap="butt" d="M77.5 247.5L581.5 247.5" fill-rule="nonzero"/><path stroke="#cccccc" stroke-width="1.0" stroke-linecap="butt" d="M77.5 194.5L581.5 194.5" fill-rule="nonzero"/><path stroke="#cccccc" stroke-width="1.0" stroke-linecap="butt" d="M77.5 141.5L581.5 141.5" fill-rule="nonzero"/><path stroke="#cccccc" stroke-width="1.0" stroke-linecap="butt" d="M77.5 88.5L581.5 88.5" fill-rule="nonzero"/><clipPath id="id_0"><path d="M77.55 88.28333L581.45 88.28333L581.45 300.45L77.55 300.45L77.55 88.28333Z" clip-rule="nonzero"/></clipPath><path stroke="#000000" stroke-width="2.0" stroke-linecap="butt" stroke-opacity="0.0" clip-path="url(#id_0)" d="M162.0 300.0L131.0 300.0L131.0 196.0C131.0 194.89543 131.89543 194.0 133.0 194.0L160.0 194.0C161.10457 194.0 162.0 194.89543 162.0 196.0Z" fill-rule="nonzero"/><path fill="#4285f4" clip-path="url(#id_0)" d="M162.0 300.0L131.0 300.0L131.0 196.0C131.0 194.89543 131.89543 194.0 133.0 194.0L160.0 194.0C161.10457 194.0 162.0 194.89543 162.0 196.0Z" fill-rule="nonzero"/><path stroke="#000000" stroke-width="2.0" stroke-linecap="butt" stroke-opacity="0.0" clip-path="url(#id_0)" d="M313.0 300.0L282.0 300.0L282.0 299.5C282.0 299.22385 282.22385 299.0 282.5 299.0L312.5 299.0C312.77615 299.0 313.0 299.22385 313.0 299.5Z" fill-rule="nonzero"/><path fill="#4285f4" clip-path="url(#id_0)" d="M313.0 300.0L282.0 300.0L282.0 299.5C282.0 299.22385 282.22385 299.0 282.5 299.0L312.5 299.0C312.77615 299.0 313.0 299.22385 313.0 299.5Z" fill-rule="nonzero"/><path stroke="#000000" stroke-width="2.0" stroke-linecap="butt" stroke-opacity="0.0" clip-path="url(#id_0)" d="M463.0 300.0L432.0 300.0L432.0 300.0L463.0 300.0Z" fill-rule="nonzero"/><path fill="#4285f4" clip-path="url(#id_0)" d="M463.0 300.0L432.0 300.0L432.0 300.0L463.0 300.0Z" fill-rule="nonzero"/><path stroke="#000000" stroke-width="2.0" stroke-linecap="butt" stroke-opacity="0.0" clip-path="url(#id_0)" d="M195.0 300.0L164.0 300.0L164.0 111.0C164.0 109.89543 164.89543 109.0 166.0 109.0L193.0 109.0C194.10457 109.0 195.0 109.89543 195.0 111.0Z" fill-rule="nonzero"/><path fill="#ea4335" clip-path="url(#id_0)" d="M195.0 300.0L164.0 300.0L164.0 111.0C164.0 109.89543 164.89543 109.0 166.0 109.0L193.0 109.0C194.10457 109.0 195.0 109.89543 195.0 111.0Z" fill-rule="nonzero"/><path stroke="#000000" stroke-width="2.0" stroke-linecap="butt" stroke-opacity="0.0" clip-path="url(#id_0)" d="M346.0 300.0L315.0 300.0L315.0 119.0C315.0 117.89543 315.89542 117.0 317.0 117.0L344.0 117.0C345.10458 117.0 346.0 117.89543 346.0 119.0Z" fill-rule="nonzero"/><path fill="#ea4335" clip-path="url(#id_0)" d="M346.0 300.0L315.0 300.0L315.0 119.0C315.0 117.89543 315.89542 117.0 317.0 117.0L344.0 117.0C345.10458 117.0 346.0 117.89543 346.0 119.0Z" fill-rule="nonzero"/><path stroke="#000000" stroke-width="2.0" stroke-linecap="butt" stroke-opacity="0.0" clip-path="url(#id_0)" d="M496.0 300.0L465.0 300.0L465.0 282.0C465.0 280.89542 465.89542 280.0 467.0 280.0L494.0 280.0C495.10458 280.0 496.0 280.89542 496.0 282.0Z" fill-rule="nonzero"/><path fill="#ea4335" clip-path="url(#id_0)" d="M496.0 300.0L465.0 300.0L465.0 282.0C465.0 280.89542 465.89542 280.0 467.0 280.0L494.0 280.0C495.10458 280.0 496.0 280.89542 496.0 282.0Z" fill-rule="nonzero"/><path stroke="#000000" stroke-width="2.0" stroke-linecap="butt" stroke-opacity="0.0" clip-path="url(#id_0)" d="M228.0 300.0L197.0 300.0L197.0 122.0C197.0 120.89543 197.89543 120.0 199.0 120.0L226.0 120.0C227.10457 120.0 228.0 120.89543 228.0 122.0Z" fill-rule="nonzero"/><path fill="#fbbc04" clip-path="url(#id_0)" d="M228.0 300.0L197.0 300.0L197.0 122.0C197.0 120.89543 197.89543 120.0 199.0 120.0L226.0 120.0C227.10457 120.0 228.0 120.89543 228.0 122.0Z" fill-rule="nonzero"/><path stroke="#000000" stroke-width="2.0" stroke-linecap="butt" stroke-opacity="0.0" clip-path="url(#id_0)" d="M379.0 300.0L348.0 300.0L348.0 111.0C348.0 109.89543 348.89542 109.0 350.0 109.0L377.0 109.0C378.10458 109.0 379.0 109.89543 379.0 111.0Z" fill-rule="nonzero"/><path fill="#fbbc04" clip-path="url(#id_0)" d="M379.0 300.0L348.0 300.0L348.0 111.0C348.0 109.89543 348.89542 109.0 350.0 109.0L377.0 109.0C378.10458 109.0 379.0 109.89543 379.0 111.0Z" fill-rule="nonzero"/><path stroke="#000000" stroke-width="2.0" stroke-linecap="butt" stroke-opacity="0.0" clip-path="url(#id_0)" d="M529.0 300.0L498.0 300.0L498.0 281.0C498.0 279.89542 498.89542 279.0 500.0 279.0L527.0 279.0C528.10455 279.0 529.0 279.89542 529.0 281.0Z" fill-rule="nonzero"/><path fill="#fbbc04" clip-path="url(#id_0)" d="M529.0 300.0L498.0 300.0L498.0 281.0C498.0 279.89542 498.89542 279.0 500.0 279.0L527.0 279.0C528.10455 279.0 529.0 279.89542 529.0 281.0Z" fill-rule="nonzero"/><path fill="#000000" d="M314.375 349.45L314.375 340.85626L317.60938 340.85626Q318.59375 340.85626 319.1875 341.1219Q319.78125 341.3875 320.10938 341.9344Q320.45312 342.46564 320.45312 343.0594Q320.45312 343.60626 320.15625 344.09064Q319.85938 344.575 319.25 344.8719Q320.03125 345.10626 320.4375 345.66876Q320.85938 346.21564 320.85938 346.96564Q320.85938 347.5594 320.60938 348.09064Q320.35938 348.60626 319.98438 348.8875Q319.60938 349.16876 319.03125 349.3094Q318.46875 349.45 317.65625 349.45L314.375 349.45ZM315.51562 344.46564L317.375 344.46564Q318.125 344.46564 318.45312 344.3719Q318.89062 344.2469 319.10938 343.95Q319.32812 343.6375 319.32812 343.1844Q319.32812 342.7625 319.125 342.4344Q318.92188 342.10626 318.53125 341.9969Q318.15625 341.8719 317.23438 341.8719L315.51562 341.8719L315.51562 344.46564ZM315.51562 348.4344L317.65625 348.4344Q318.20312 348.4344 318.42188 348.3875Q318.82812 348.325 319.07812 348.16876Q319.34375 347.9969 319.51562 347.6844Q319.6875 347.3719 319.6875 346.96564Q319.6875 346.48126 319.4375 346.1219Q319.20312 345.7625 318.76562 345.6219Q318.32812 345.48126 317.5 345.48126L315.51562 345.48126L315.51562 348.4344ZM321.90625 346.34064Q321.90625 344.60626 322.85938 343.77814Q323.65625 343.09064 324.8125 343.09064Q326.09375 343.09064 326.90625 343.9344Q327.73438 344.7625 327.73438 346.2469Q327.73438 347.45 327.375 348.1375Q327.01562 348.825 326.3125 349.21564Q325.625 349.59064 324.8125 349.59064Q323.51562 349.59064 322.70312 348.7625Q321.90625 347.91876 321.90625 346.34064ZM322.98438 346.34064Q322.98438 347.52814 323.5 348.1219Q324.03125 348.71564 324.8125 348.71564Q325.60938 348.71564 326.125 348.1219Q326.64062 347.52814 326.64062 346.3094Q326.64062 345.15314 326.10938 344.5594Q325.59375 343.96564 324.8125 343.96564Q324.03125 343.96564 323.5 344.5594Q322.98438 345.1375 322.98438 346.34064ZM329.29688 342.075L329.29688 340.85626L330.35938 340.85626L330.35938 342.075L329.29688 342.075ZM329.29688 349.45L329.29688 343.23126L330.35938 343.23126L330.35938 349.45L329.29688 349.45ZM336.32812 349.45L336.32812 348.66876Q335.73438 349.59064 334.59375 349.59064Q333.84375 349.59064 333.21875 349.1844Q332.59375 348.7625 332.25 348.02814Q331.90625 347.29376 331.90625 346.34064Q331.90625 345.41876 332.21875 344.65314Q332.53125 343.8875 333.15625 343.4969Q333.78125 343.09064 334.54688 343.09064Q335.10938 343.09064 335.54688 343.325Q335.98438 343.5594 336.26562 343.9344L336.26562 340.85626L337.3125 340.85626L337.3125 349.45L336.32812 349.45ZM333.0 346.34064Q333.0 347.54376 333.5 348.1375Q334.0 348.71564 334.6875 348.71564Q335.375 348.71564 335.85938 348.15314Q336.34375 347.59064 336.34375 346.4344Q336.34375 345.15314 335.84375 344.5594Q335.35938 343.96564 334.64062 343.96564Q333.9375 343.96564 333.46875 344.54376Q333.0 345.10626 333.0 346.34064ZM338.875 347.59064L339.90625 347.4344Q340.0 348.0594 340.39062 348.3875Q340.79688 348.71564 341.53125 348.71564Q342.25 348.71564 342.59375 348.4344Q342.95312 348.1375 342.95312 347.73126Q342.95312 347.3719 342.64062 347.16876Q342.42188 347.02814 341.5625 346.8094Q340.40625 346.5125 339.95312 346.3094Q339.51562 346.09064 339.28125 345.71564Q339.04688 345.34064 339.04688 344.8719Q339.04688 344.46564 339.23438 344.10626Q339.42188 343.7469 339.75 343.5125Q340.0 343.34064 340.42188 343.21564Q340.84375 343.09064 341.34375 343.09064Q342.0625 343.09064 342.60938 343.3094Q343.17188 343.5125 343.4375 343.8719Q343.70312 344.23126 343.79688 344.825L342.76562 344.96564Q342.70312 344.4969 342.35938 344.23126Q342.03125 343.95 341.40625 343.95Q340.6875 343.95 340.375 344.2Q340.0625 344.4344 340.0625 344.7625Q340.0625 344.96564 340.1875 345.1219Q340.32812 345.29376 340.59375 345.40314Q340.75 345.46564 341.53125 345.66876Q342.65625 345.98126 343.09375 346.16876Q343.53125 346.35626 343.78125 346.71564Q344.03125 347.075 344.03125 347.6219Q344.03125 348.15314 343.71875 348.6219Q343.42188 349.075 342.84375 349.34064Q342.26562 349.59064 341.53125 349.59064Q340.3125 349.59064 339.67188 349.09064Q339.04688 348.575 338.875 347.59064Z" fill-rule="nonzero"/><path fill="#000000" d="M29.550013 211.3823L20.956263 211.3823L20.956263 205.58542L21.971888 205.58542L21.971888 210.24167L24.628138 210.24167L24.628138 206.21042L25.643763 206.21042L25.643763 210.24167L29.550013 210.24167L29.550013 211.3823ZM29.550013 204.4448L20.956263 204.4448L20.956263 201.1948Q20.956263 200.35104 21.034388 199.89792Q21.143763 199.2573 21.440638 198.83542Q21.737513 198.39792 22.268763 198.14792Q22.800013 197.8823 23.440638 197.8823Q24.534388 197.8823 25.300013 198.58542Q26.050013 199.27292 26.050013 201.10104L26.050013 203.30417L29.550013 203.30417L29.550013 204.4448ZM25.050013 203.30417L25.050013 201.08542Q25.050013 199.97604 24.643763 199.52292Q24.221888 199.05417 23.471888 199.05417Q22.940638 199.05417 22.565638 199.33542Q22.175013 199.60104 22.050013 200.03854Q21.971888 200.33542 21.971888 201.10104L21.971888 203.30417L25.050013 203.30417ZM26.784388 196.8198L26.690638 195.7573Q27.346888 195.67917 27.753138 195.39792Q28.159388 195.11667 28.425013 194.53854Q28.675013 193.9448 28.675013 193.21042Q28.675013 192.5698 28.487513 192.0698Q28.284388 191.5698 27.956263 191.33542Q27.612513 191.08542 27.221888 191.08542Q26.815638 191.08542 26.518763 191.3198Q26.206263 191.55417 26.003138 192.08542Q25.862513 192.4448 25.581263 193.6323Q25.300013 194.80417 25.050013 195.27292Q24.721888 195.89792 24.253138 196.1948Q23.768763 196.49167 23.175013 196.49167Q22.534388 196.49167 21.971888 196.1323Q21.393763 195.7573 21.112513 195.05417Q20.815638 194.33542 20.815638 193.47604Q20.815638 192.52292 21.128138 191.78854Q21.425013 191.05417 22.034388 190.66354Q22.628138 190.27292 23.378138 190.24167L23.456263 191.33542Q22.643763 191.42917 22.237513 191.9448Q21.815638 192.4448 21.815638 193.42917Q21.815638 194.46042 22.190638 194.92917Q22.565638 195.39792 23.096888 195.39792Q23.565638 195.39792 23.862513 195.0698Q24.159388 194.74167 24.471888 193.36667Q24.784388 191.97604 25.018763 191.46042Q25.378138 190.71042 25.909388 190.35104Q26.425013 189.99167 27.128138 189.99167Q27.815638 189.99167 28.425013 190.3823Q29.018763 190.77292 29.362513 191.5073Q29.690638 192.24167 29.690638 193.16354Q29.690638 194.33542 29.362513 195.1323Q29.018763 195.91354 28.331263 196.36667Q27.643763 196.80417 26.784388 196.8198Z" fill-rule="nonzero"/><path fill="#000000" d="M65.05 300.21564Q65.05 298.6844 65.3625 297.7625Q65.675 296.825 66.28438 296.325Q66.90938 295.825 67.84688 295.825Q68.53438 295.825 69.05 296.10626Q69.58125 296.3875 69.925 296.91876Q70.26875 297.4344 70.45625 298.1844Q70.64375 298.9344 70.64375 300.21564Q70.64375 301.73126 70.33125 302.65314Q70.03438 303.575 69.40938 304.09064Q68.8 304.59064 67.84688 304.59064Q66.6125 304.59064 65.89375 303.7Q65.05 302.6375 65.05 300.21564ZM66.12813 300.21564Q66.12813 302.325 66.62813 303.02814Q67.12813 303.73126 67.84688 303.73126Q68.58125 303.73126 69.06563 303.02814Q69.56563 302.325 69.56563 300.21564Q69.56563 298.09064 69.06563 297.40314Q68.58125 296.7 67.83125 296.7Q67.1125 296.7 66.675 297.3094Q66.12813 298.09064 66.12813 300.21564Z" fill-rule="nonzero"/><path fill="#000000" d="M55.01875 251.40834L53.971874 251.40834L53.971874 244.68959Q53.58125 245.04897 52.95625 245.42397Q52.346874 245.78334 51.8625 245.95522L51.8625 244.93959Q52.7375 244.51772 53.39375 243.93959Q54.065624 243.34584 54.346874 242.78334L55.01875 242.78334L55.01875 251.40834ZM58.05 247.17397Q58.05 245.64272 58.3625 244.72084Q58.675 243.78334 59.284374 243.28334Q59.909374 242.78334 60.846874 242.78334Q61.534374 242.78334 62.05 243.06459Q62.58125 243.34584 62.925 243.87709Q63.26875 244.39272 63.45625 245.14272Q63.64375 245.89272 63.64375 247.17397Q63.64375 248.68959 63.33125 249.61147Q63.034374 250.53334 62.409374 251.04897Q61.8 251.54897 60.846874 251.54897Q59.6125 251.54897 58.89375 250.65834Q58.05 249.59584 58.05 247.17397ZM59.128124 247.17397Q59.128124 249.28334 59.628124 249.98647Q60.128124 250.68959 60.846874 250.68959Q61.58125 250.68959 62.065624 249.98647Q62.565624 249.28334 62.565624 247.17397Q62.565624 245.04897 62.065624 244.36147Q61.58125 243.65834 60.83125 243.65834Q60.1125 243.65834 59.675 244.26772Q59.128124 245.04897 59.128124 247.17397ZM65.05 247.17397Q65.05 245.64272 65.3625 244.72084Q65.675 243.78334 66.28438 243.28334Q66.90938 242.78334 67.84688 242.78334Q68.53438 242.78334 69.05 243.06459Q69.58125 243.34584 69.925 243.87709Q70.26875 244.39272 70.45625 245.14272Q70.64375 245.89272 70.64375 247.17397Q70.64375 248.68959 70.33125 249.61147Q70.03438 250.53334 69.40938 251.04897Q68.8 251.54897 67.84688 251.54897Q66.6125 251.54897 65.89375 250.65834Q65.05 249.59584 65.05 247.17397ZM66.12813 247.17397Q66.12813 249.28334 66.62813 249.98647Q67.12813 250.68959 67.84688 250.68959Q68.58125 250.68959 69.06563 249.98647Q69.56563 249.28334 69.56563 247.17397Q69.56563 245.04897 69.06563 244.36147Q68.58125 243.65834 67.83125 243.65834Q67.1125 243.65834 66.675 244.26772Q66.12813 245.04897 66.12813 247.17397Z" fill-rule="nonzero"/><path fill="#000000" d="M56.596874 197.35104L56.596874 198.36667L50.909374 198.36667Q50.909374 197.99167 51.034374 197.6323Q51.253124 197.05417 51.721874 196.49167Q52.20625 195.92917 53.1125 195.1948Q54.51875 194.03854 55.003124 193.36667Q55.503124 192.6948 55.503124 192.10104Q55.503124 191.47604 55.05 191.05417Q54.596874 190.61667 53.878124 190.61667Q53.1125 190.61667 52.659374 191.0698Q52.20625 191.52292 52.190624 192.33542L51.1125 192.22604Q51.221874 191.0073 51.940624 190.3823Q52.675 189.74167 53.909374 189.74167Q55.14375 189.74167 55.8625 190.42917Q56.58125 191.11667 56.58125 192.1323Q56.58125 192.64792 56.3625 193.14792Q56.159374 193.6323 55.659374 194.1948Q55.175 194.74167 54.05 195.6948Q53.096874 196.49167 52.815624 196.78854Q52.55 197.0698 52.378124 197.35104L56.596874 197.35104ZM58.05 194.1323Q58.05 192.60104 58.3625 191.67917Q58.675 190.74167 59.284374 190.24167Q59.909374 189.74167 60.846874 189.74167Q61.534374 189.74167 62.05 190.02292Q62.58125 190.30417 62.925 190.83542Q63.26875 191.35104 63.45625 192.10104Q63.64375 192.85104 63.64375 194.1323Q63.64375 195.64792 63.33125 196.5698Q63.034374 197.49167 62.409374 198.0073Q61.8 198.5073 60.846874 198.5073Q59.6125 198.5073 58.89375 197.61667Q58.05 196.55417 58.05 194.1323ZM59.128124 194.1323Q59.128124 196.24167 59.628124 196.9448Q60.128124 197.64792 60.846874 197.64792Q61.58125 197.64792 62.065624 196.9448Q62.565624 196.24167 62.565624 194.1323Q62.565624 192.0073 62.065624 191.3198Q61.58125 190.61667 60.83125 190.61667Q60.1125 190.61667 59.675 191.22604Q59.128124 192.0073 59.128124 194.1323ZM65.05 194.1323Q65.05 192.60104 65.3625 191.67917Q65.675 190.74167 66.28438 190.24167Q66.90938 189.74167 67.84688 189.74167Q68.53438 189.74167 69.05 190.02292Q69.58125 190.30417 69.925 190.83542Q70.26875 191.35104 70.45625 192.10104Q70.64375 192.85104 70.64375 194.1323Q70.64375 195.64792 70.33125 196.5698Q70.03438 197.49167 69.40938 198.0073Q68.8 198.5073 67.84688 198.5073Q66.6125 198.5073 65.89375 197.61667Q65.05 196.55417 65.05 194.1323ZM66.12813 194.1323Q66.12813 196.24167 66.62813 196.9448Q67.12813 197.64792 67.84688 197.64792Q68.58125 197.64792 69.06563 196.9448Q69.56563 196.24167 69.56563 194.1323Q69.56563 192.0073 69.06563 191.3198Q68.58125 190.61667 67.83125 190.61667Q67.1125 190.61667 66.675 191.22604Q66.12813 192.0073 66.12813 194.1323Z" fill-rule="nonzero"/><path fill="#000000" d="M51.05 143.05937L52.1125 142.91875Q52.284374 143.80937 52.721874 144.21562Q53.159374 144.60625 53.784374 144.60625Q54.534374 144.60625 55.05 144.09062Q55.565624 143.575 55.565624 142.80937Q55.565624 142.09062 55.08125 141.62187Q54.6125 141.1375 53.878124 141.1375Q53.58125 141.1375 53.128124 141.2625L53.253124 140.325Q53.3625 140.34062 53.425 140.34062Q54.096874 140.34062 54.628124 139.99687Q55.175 139.6375 55.175 138.90312Q55.175 138.325 54.784374 137.95Q54.39375 137.55937 53.76875 137.55937Q53.159374 137.55937 52.7375 137.95Q52.33125 138.34062 52.221874 139.10625L51.159374 138.91875Q51.346874 137.87187 52.034374 137.29375Q52.721874 136.7 53.7375 136.7Q54.440624 136.7 55.034374 137.0125Q55.628124 137.30937 55.940624 137.825Q56.253124 138.34062 56.253124 138.93437Q56.253124 139.48125 55.95625 139.95Q55.659374 140.40312 55.08125 140.66875Q55.83125 140.84062 56.253124 141.40312Q56.675 141.95 56.675 142.79375Q56.675 143.91875 55.846874 144.7Q55.034374 145.48125 53.784374 145.48125Q52.659374 145.48125 51.909374 144.80937Q51.159374 144.12187 51.05 143.05937ZM58.05 141.09062Q58.05 139.55937 58.3625 138.6375Q58.675 137.7 59.284374 137.2Q59.909374 136.7 60.846874 136.7Q61.534374 136.7 62.05 136.98125Q62.58125 137.2625 62.925 137.79375Q63.26875 138.30937 63.45625 139.05937Q63.64375 139.80937 63.64375 141.09062Q63.64375 142.60625 63.33125 143.52812Q63.034374 144.45 62.409374 144.96562Q61.8 145.46562 60.846874 145.46562Q59.6125 145.46562 58.89375 144.575Q58.05 143.5125 58.05 141.09062ZM59.128124 141.09062Q59.128124 143.2 59.628124 143.90312Q60.128124 144.60625 60.846874 144.60625Q61.58125 144.60625 62.065624 143.90312Q62.565624 143.2 62.565624 141.09062Q62.565624 138.96562 62.065624 138.27812Q61.58125 137.575 60.83125 137.575Q60.1125 137.575 59.675 138.18437Q59.128124 138.96562 59.128124 141.09062ZM65.05 141.09062Q65.05 139.55937 65.3625 138.6375Q65.675 137.7 66.28438 137.2Q66.90938 136.7 67.84688 136.7Q68.53438 136.7 69.05 136.98125Q69.58125 137.2625 69.925 137.79375Q70.26875 138.30937 70.45625 139.05937Q70.64375 139.80937 70.64375 141.09062Q70.64375 142.60625 70.33125 143.52812Q70.03438 144.45 69.40938 144.96562Q68.8 145.46562 67.84688 145.46562Q66.6125 145.46562 65.89375 144.575Q65.05 143.5125 65.05 141.09062ZM66.12813 141.09062Q66.12813 143.2 66.62813 143.90312Q67.12813 144.60625 67.84688 144.60625Q68.58125 144.60625 69.06563 143.90312Q69.56563 143.2 69.56563 141.09062Q69.56563 138.96562 69.06563 138.27812Q68.58125 137.575 67.83125 137.575Q67.1125 137.575 66.675 138.18437Q66.12813 138.96562 66.12813 141.09062Z" fill-rule="nonzero"/><path fill="#000000" d="M54.425 92.28333L54.425 90.22083L50.70625 90.22083L50.70625 89.25208L54.628124 83.68958L55.4875 83.68958L55.4875 89.25208L56.64375 89.25208L56.64375 90.22083L55.4875 90.22083L55.4875 92.28333L54.425 92.28333ZM54.425 89.25208L54.425 85.39271L51.7375 89.25208L54.425 89.25208ZM58.05 88.04896Q58.05 86.51771 58.3625 85.59583Q58.675 84.65833 59.284374 84.15833Q59.909374 83.65833 60.846874 83.65833Q61.534374 83.65833 62.05 83.93958Q62.58125 84.22083 62.925 84.75208Q63.26875 85.26771 63.45625 86.01771Q63.64375 86.76771 63.64375 88.04896Q63.64375 89.56458 63.33125 90.48646Q63.034374 91.40833 62.409374 91.92396Q61.8 92.42396 60.846874 92.42396Q59.6125 92.42396 58.89375 91.53333Q58.05 90.47083 58.05 88.04896ZM59.128124 88.04896Q59.128124 90.15833 59.628124 90.86146Q60.128124 91.56458 60.846874 91.56458Q61.58125 91.56458 62.065624 90.86146Q62.565624 90.15833 62.565624 88.04896Q62.565624 85.92396 62.065624 85.23646Q61.58125 84.53333 60.83125 84.53333Q60.1125 84.53333 59.675 85.14271Q59.128124 85.92396 59.128124 88.04896ZM65.05 88.04896Q65.05 86.51771 65.3625 85.59583Q65.675 84.65833 66.28438 84.15833Q66.90938 83.65833 67.84688 83.65833Q68.53438 83.65833 69.05 83.93958Q69.58125 84.22083 69.925 84.75208Q70.26875 85.26771 70.45625 86.01771Q70.64375 86.76771 70.64375 88.04896Q70.64375 89.56458 70.33125 90.48646Q70.03438 91.40833 69.40938 91.92396Q68.8 92.42396 67.84688 92.42396Q66.6125 92.42396 65.89375 91.53333Q65.05 90.47083 65.05 88.04896ZM66.12813 88.04896Q66.12813 90.15833 66.62813 90.86146Q67.12813 91.56458 67.84688 91.56458Q68.58125 91.56458 69.06563 90.86146Q69.56563 90.15833 69.56563 88.04896Q69.56563 85.92396 69.06563 85.23646Q68.58125 84.53333 67.83125 84.53333Q67.1125 84.53333 66.675 85.14271Q66.12813 85.92396 66.12813 88.04896Z" fill-rule="nonzero"/><path fill="#000000" d="M165.58209 315.2L166.69147 315.10626Q166.81647 315.91876 167.25397 316.325Q167.70709 316.73126 168.34772 316.73126Q169.09772 316.73126 169.62897 316.15314Q170.16022 315.575 170.16022 314.6375Q170.16022 313.73126 169.64459 313.21564Q169.14459 312.6844 168.31647 312.6844Q167.81647 312.6844 167.39459 312.91876Q166.98834 313.15314 166.75397 313.5125L165.76959 313.3875L166.59772 308.98126L170.87897 308.98126L170.87897 309.98126L167.44147 309.98126L166.98834 312.29376Q167.75397 311.7469 168.59772 311.7469Q169.72272 311.7469 170.48834 312.52814Q171.26959 313.3094 171.26959 314.54376Q171.26959 315.7 170.59772 316.5594Q169.76959 317.59064 168.34772 317.59064Q167.17584 317.59064 166.42584 316.9344Q165.69147 316.27814 165.58209 315.2ZM172.58209 313.21564Q172.58209 311.6844 172.89459 310.7625Q173.20709 309.825 173.81647 309.325Q174.44147 308.825 175.37897 308.825Q176.06647 308.825 176.58209 309.10626Q177.11334 309.3875 177.45709 309.91876Q177.80084 310.4344 177.98834 311.1844Q178.17584 311.9344 178.17584 313.21564Q178.17584 314.73126 177.86334 315.65314Q177.56647 316.575 176.94147 317.09064Q176.33209 317.59064 175.37897 317.59064Q174.14459 317.59064 173.42584 316.7Q172.58209 315.6375 172.58209 313.21564ZM173.66022 313.21564Q173.66022 315.325 174.16022 316.02814Q174.66022 316.73126 175.37897 316.73126Q176.11334 316.73126 176.59772 316.02814Q177.09772 315.325 177.09772 313.21564Q177.09772 311.09064 176.59772 310.40314Q176.11334 309.7 175.36334 309.7Q174.64459 309.7 174.20709 310.3094Q173.66022 311.09064 173.66022 313.21564ZM179.58209 313.21564Q179.58209 311.6844 179.89459 310.7625Q180.20709 309.825 180.81647 309.325Q181.44147 308.825 182.37897 308.825Q183.06647 308.825 183.58209 309.10626Q184.11334 309.3875 184.45709 309.91876Q184.80084 310.4344 184.98834 311.1844Q185.17584 311.9344 185.17584 313.21564Q185.17584 314.73126 184.86334 315.65314Q184.56647 316.575 183.94147 317.09064Q183.33209 317.59064 182.37897 317.59064Q181.14459 317.59064 180.42584 316.7Q179.58209 315.6375 179.58209 313.21564ZM180.66022 313.21564Q180.66022 315.325 181.16022 316.02814Q181.66022 316.73126 182.37897 316.73126Q183.11334 316.73126 183.59772 316.02814Q184.09772 315.325 184.09772 313.21564Q184.09772 311.09064 183.59772 310.40314Q183.11334 309.7 182.36334 309.7Q181.64459 309.7 181.20709 310.3094Q180.66022 311.09064 180.66022 313.21564ZM186.58209 313.21564Q186.58209 311.6844 186.89459 310.7625Q187.20709 309.825 187.81647 309.325Q188.44147 308.825 189.37897 308.825Q190.06647 308.825 190.58209 309.10626Q191.11334 309.3875 191.45709 309.91876Q191.80084 310.4344 191.98834 311.1844Q192.17584 311.9344 192.17584 313.21564Q192.17584 314.73126 191.86334 315.65314Q191.56647 316.575 190.94147 317.09064Q190.33209 317.59064 189.37897 317.59064Q188.14459 317.59064 187.42584 316.7Q186.58209 315.6375 186.58209 313.21564ZM187.66022 313.21564Q187.66022 315.325 188.16022 316.02814Q188.66022 316.73126 189.37897 316.73126Q190.11334 316.73126 190.59772 316.02814Q191.09772 315.325 191.09772 313.21564Q191.09772 311.09064 190.59772 310.40314Q190.11334 309.7 189.36334 309.7Q188.64459 309.7 188.20709 310.3094Q187.66022 311.09064 187.66022 313.21564Z" fill-rule="nonzero"/><path fill="#000000" d="M312.5 315.2L313.60938 315.10626Q313.73438 315.91876 314.17188 316.325Q314.625 316.73126 315.26562 316.73126Q316.01562 316.73126 316.54688 316.15314Q317.07812 315.575 317.07812 314.6375Q317.07812 313.73126 316.5625 313.21564Q316.0625 312.6844 315.23438 312.6844Q314.73438 312.6844 314.3125 312.91876Q313.90625 313.15314 313.67188 313.5125L312.6875 313.3875L313.51562 308.98126L317.79688 308.98126L317.79688 309.98126L314.35938 309.98126L313.90625 312.29376Q314.67188 311.7469 315.51562 311.7469Q316.64062 311.7469 317.40625 312.52814Q318.1875 313.3094 318.1875 314.54376Q318.1875 315.7 317.51562 316.5594Q316.6875 317.59064 315.26562 317.59064Q314.09375 317.59064 313.34375 316.9344Q312.60938 316.27814 312.5 315.2ZM319.5 313.21564Q319.5 311.6844 319.8125 310.7625Q320.125 309.825 320.73438 309.325Q321.35938 308.825 322.29688 308.825Q322.98438 308.825 323.5 309.10626Q324.03125 309.3875 324.375 309.91876Q324.71875 310.4344 324.90625 311.1844Q325.09375 311.9344 325.09375 313.21564Q325.09375 314.73126 324.78125 315.65314Q324.48438 316.575 323.85938 317.09064Q323.25 317.59064 322.29688 317.59064Q321.0625 317.59064 320.34375 316.7Q319.5 315.6375 319.5 313.21564ZM320.57812 313.21564Q320.57812 315.325 321.07812 316.02814Q321.57812 316.73126 322.29688 316.73126Q323.03125 316.73126 323.51562 316.02814Q324.01562 315.325 324.01562 313.21564Q324.01562 311.09064 323.51562 310.40314Q323.03125 309.7 322.28125 309.7Q321.5625 309.7 321.125 310.3094Q320.57812 311.09064 320.57812 313.21564ZM326.5 313.21564Q326.5 311.6844 326.8125 310.7625Q327.125 309.825 327.73438 309.325Q328.35938 308.825 329.29688 308.825Q329.98438 308.825 330.5 309.10626Q331.03125 309.3875 331.375 309.91876Q331.71875 310.4344 331.90625 311.1844Q332.09375 311.9344 332.09375 313.21564Q332.09375 314.73126 331.78125 315.65314Q331.48438 316.575 330.85938 317.09064Q330.25 317.59064 329.29688 317.59064Q328.0625 317.59064 327.34375 316.7Q326.5 315.6375 326.5 313.21564ZM327.57812 313.21564Q327.57812 315.325 328.07812 316.02814Q328.57812 316.73126 329.29688 316.73126Q330.03125 316.73126 330.51562 316.02814Q331.01562 315.325 331.01562 313.21564Q331.01562 311.09064 330.51562 310.40314Q330.03125 309.7 329.28125 309.7Q328.5625 309.7 328.125 310.3094Q327.57812 311.09064 327.57812 313.21564ZM333.5 313.21564Q333.5 311.6844 333.8125 310.7625Q334.125 309.825 334.73438 309.325Q335.35938 308.825 336.29688 308.825Q336.98438 308.825 337.5 309.10626Q338.03125 309.3875 338.375 309.91876Q338.71875 310.4344 338.90625 311.1844Q339.09375 311.9344 339.09375 313.21564Q339.09375 314.73126 338.78125 315.65314Q338.48438 316.575 337.85938 317.09064Q337.25 317.59064 336.29688 317.59064Q335.0625 317.59064 334.34375 316.7Q333.5 315.6375 333.5 313.21564ZM334.57812 313.21564Q334.57812 315.325 335.07812 316.02814Q335.57812 316.73126 336.29688 316.73126Q337.03125 316.73126 337.51562 316.02814Q338.01562 315.325 338.01562 313.21564Q338.01562 311.09064 337.51562 310.40314Q337.03125 309.7 336.28125 309.7Q335.5625 309.7 335.125 310.3094Q334.57812 311.09064 334.57812 313.21564ZM340.5 313.21564Q340.5 311.6844 340.8125 310.7625Q341.125 309.825 341.73438 309.325Q342.35938 308.825 343.29688 308.825Q343.98438 308.825 344.5 309.10626Q345.03125 309.3875 345.375 309.91876Q345.71875 310.4344 345.90625 311.1844Q346.09375 311.9344 346.09375 313.21564Q346.09375 314.73126 345.78125 315.65314Q345.48438 316.575 344.85938 317.09064Q344.25 317.59064 343.29688 317.59064Q342.0625 317.59064 341.34375 316.7Q340.5 315.6375 340.5 313.21564ZM341.57812 313.21564Q341.57812 315.325 342.07812 316.02814Q342.57812 316.73126 343.29688 316.73126Q344.03125 316.73126 344.51562 316.02814Q345.01562 315.325 345.01562 313.21564Q345.01562 311.09064 344.51562 310.40314Q344.03125 309.7 343.28125 309.7Q342.5625 309.7 342.125 310.3094Q341.57812 311.09064 341.57812 313.21564Z" fill-rule="nonzero"/><path fill="#000000" d="M459.4179 315.2L460.52728 315.10626Q460.65228 315.91876 461.08978 316.325Q461.5429 316.73126 462.18353 316.73126Q462.93353 316.73126 463.46478 316.15314Q463.99603 315.575 463.99603 314.6375Q463.99603 313.73126 463.4804 313.21564Q462.9804 312.6844 462.15228 312.6844Q461.65228 312.6844 461.2304 312.91876Q460.82416 313.15314 460.58978 313.5125L459.6054 313.3875L460.43353 308.98126L464.71478 308.98126L464.71478 309.98126L461.27728 309.98126L460.82416 312.29376Q461.58978 311.7469 462.43353 311.7469Q463.55853 311.7469 464.32416 312.52814Q465.1054 313.3094 465.1054 314.54376Q465.1054 315.7 464.43353 316.5594Q463.6054 317.59064 462.18353 317.59064Q461.01166 317.59064 460.26166 316.9344Q459.52728 316.27814 459.4179 315.2ZM466.4179 313.21564Q466.4179 311.6844 466.7304 310.7625Q467.0429 309.825 467.65228 309.325Q468.27728 308.825 469.21478 308.825Q469.90228 308.825 470.4179 309.10626Q470.94916 309.3875 471.2929 309.91876Q471.63666 310.4344 471.82416 311.1844Q472.01166 311.9344 472.01166 313.21564Q472.01166 314.73126 471.69916 315.65314Q471.40228 316.575 470.77728 317.09064Q470.1679 317.59064 469.21478 317.59064Q467.9804 317.59064 467.26166 316.7Q466.4179 315.6375 466.4179 313.21564ZM467.49603 313.21564Q467.49603 315.325 467.99603 316.02814Q468.49603 316.73126 469.21478 316.73126Q469.94916 316.73126 470.43353 316.02814Q470.93353 315.325 470.93353 313.21564Q470.93353 311.09064 470.43353 310.40314Q469.94916 309.7 469.19916 309.7Q468.4804 309.7 468.0429 310.3094Q467.49603 311.09064 467.49603 313.21564ZM473.4179 313.21564Q473.4179 311.6844 473.7304 310.7625Q474.0429 309.825 474.65228 309.325Q475.27728 308.825 476.21478 308.825Q476.90228 308.825 477.4179 309.10626Q477.94916 309.3875 478.2929 309.91876Q478.63666 310.4344 478.82416 311.1844Q479.01166 311.9344 479.01166 313.21564Q479.01166 314.73126 478.69916 315.65314Q478.40228 316.575 477.77728 317.09064Q477.1679 317.59064 476.21478 317.59064Q474.9804 317.59064 474.26166 316.7Q473.4179 315.6375 473.4179 313.21564ZM474.49603 313.21564Q474.49603 315.325 474.99603 316.02814Q475.49603 316.73126 476.21478 316.73126Q476.94916 316.73126 477.43353 316.02814Q477.93353 315.325 477.93353 313.21564Q477.93353 311.09064 477.43353 310.40314Q476.94916 309.7 476.19916 309.7Q475.4804 309.7 475.0429 310.3094Q474.49603 311.09064 474.49603 313.21564ZM480.4179 313.21564Q480.4179 311.6844 480.7304 310.7625Q481.0429 309.825 481.65228 309.325Q482.27728 308.825 483.21478 308.825Q483.90228 308.825 484.4179 309.10626Q484.94916 309.3875 485.2929 309.91876Q485.63666 310.4344 485.82416 311.1844Q486.01166 311.9344 486.01166 313.21564Q486.01166 314.73126 485.69916 315.65314Q485.40228 316.575 484.77728 317.09064Q484.1679 317.59064 483.21478 317.59064Q481.9804 317.59064 481.26166 316.7Q480.4179 315.6375 480.4179 313.21564ZM481.49603 313.21564Q481.49603 315.325 481.99603 316.02814Q482.49603 316.73126 483.21478 316.73126Q483.94916 316.73126 484.43353 316.02814Q484.93353 315.325 484.93353 313.21564Q484.93353 311.09064 484.43353 310.40314Q483.94916 309.7 483.19916 309.7Q482.4804 309.7 482.0429 310.3094Q481.49603 311.09064 481.49603 313.21564ZM487.4179 313.21564Q487.4179 311.6844 487.7304 310.7625Q488.0429 309.825 488.65228 309.325Q489.27728 308.825 490.21478 308.825Q490.90228 308.825 491.4179 309.10626Q491.94916 309.3875 492.2929 309.91876Q492.63666 310.4344 492.82416 311.1844Q493.01166 311.9344 493.01166 313.21564Q493.01166 314.73126 492.69916 315.65314Q492.40228 316.575 491.77728 317.09064Q491.1679 317.59064 490.21478 317.59064Q488.9804 317.59064 488.26166 316.7Q487.4179 315.6375 487.4179 313.21564ZM488.49603 313.21564Q488.49603 315.325 488.99603 316.02814Q489.49603 316.73126 490.21478 316.73126Q490.94916 316.73126 491.43353 316.02814Q491.93353 315.325 491.93353 313.21564Q491.93353 311.09064 491.43353 310.40314Q490.94916 309.7 490.19916 309.7Q489.4804 309.7 489.0429 310.3094Q488.49603 311.09064 488.49603 313.21564ZM494.4179 313.21564Q494.4179 311.6844 494.7304 310.7625Q495.0429 309.825 495.65228 309.325Q496.27728 308.825 497.21478 308.825Q497.90228 308.825 498.4179 309.10626Q498.94916 309.3875 499.2929 309.91876Q499.63666 310.4344 499.82416 311.1844Q500.01166 311.9344 500.01166 313.21564Q500.01166 314.73126 499.69916 315.65314Q499.40228 316.575 498.77728 317.09064Q498.1679 317.59064 497.21478 317.59064Q495.9804 317.59064 495.26166 316.7Q494.4179 315.6375 494.4179 313.21564ZM495.49603 313.21564Q495.49603 315.325 495.99603 316.02814Q496.49603 316.73126 497.21478 316.73126Q497.94916 316.73126 498.43353 316.02814Q498.93353 315.325 498.93353 313.21564Q498.93353 311.09064 498.43353 310.40314Q497.94916 309.7 497.19916 309.7Q496.4804 309.7 496.0429 310.3094Q495.49603 311.09064 495.49603 313.21564Z" fill-rule="nonzero"/><path fill="#4285f4" d="M191.0 56.916668C191.0 56.364384 191.44771 55.916668 192.0 55.916668L202.0 55.916668C202.55229 55.916668 203.0 56.364384 203.0 56.916668L203.0 66.916664C203.0 67.46895 202.55229 67.916664 202.0 67.916664L192.0 67.916664C191.44771 67.916664 191.0 67.46895 191.0 66.916664Z" fill-rule="nonzero"/><path fill="#1a1a1a" d="M211.92188 65.916664L211.92188 57.322914L213.07812 57.322914L217.59375 64.072914L217.59375 57.322914L218.6875 57.322914L218.6875 65.916664L217.51562 65.916664L213.0 59.166664L213.0 65.916664L211.92188 65.916664ZM224.85938 65.15104Q224.26562 65.65104 223.71875 65.854164Q223.1875 66.05729 222.5625 66.05729Q221.53125 66.05729 220.98438 65.55729Q220.4375 65.05729 220.4375 64.27604Q220.4375 63.822914 220.64062 63.447914Q220.84375 63.05729 221.1875 62.83854Q221.53125 62.604164 221.95312 62.49479Q222.25 62.40104 222.89062 62.322914Q224.15625 62.18229 224.76562 61.96354Q224.76562 61.74479 224.76562 61.697914Q224.76562 61.041664 224.46875 60.77604Q224.0625 60.43229 223.26562 60.43229Q222.53125 60.43229 222.17188 60.697914Q221.8125 60.947914 221.64062 61.604164L220.60938 61.46354Q220.75 60.80729 221.07812 60.40104Q221.40625 59.99479 222.01562 59.77604Q222.625 59.55729 223.42188 59.55729Q224.21875 59.55729 224.71875 59.74479Q225.21875 59.93229 225.45312 60.21354Q225.6875 60.49479 225.78125 60.93229Q225.82812 61.197914 225.82812 61.90104L225.82812 63.30729Q225.82812 64.77604 225.89062 65.166664Q225.96875 65.55729 226.17188 65.916664L225.0625 65.916664Q224.90625 65.58854 224.85938 65.15104ZM224.76562 62.791664Q224.1875 63.02604 223.04688 63.197914Q222.39062 63.291664 222.125 63.416664Q221.85938 63.52604 221.70312 63.74479Q221.5625 63.96354 221.5625 64.24479Q221.5625 64.666664 221.875 64.947914Q222.20312 65.229164 222.8125 65.229164Q223.42188 65.229164 223.89062 64.96354Q224.375 64.697914 224.59375 64.229164Q224.76562 63.86979 224.76562 63.18229L224.76562 62.791664ZM227.79688 58.541664L227.79688 57.322914L228.85938 57.322914L228.85938 58.541664L227.79688 58.541664ZM227.79688 65.916664L227.79688 59.697914L228.85938 59.697914L228.85938 65.916664L227.79688 65.916664ZM232.51562 65.916664L230.15625 59.697914L231.26562 59.697914L232.60938 63.416664Q232.8125 64.02604 233.0 64.666664Q233.14062 64.18229 233.39062 63.49479L234.78125 59.697914L235.85938 59.697914L233.5 65.916664L232.51562 65.916664ZM240.04688 63.916664L241.14062 64.041664Q240.89062 64.99479 240.1875 65.52604Q239.48438 66.05729 238.40625 66.05729Q237.04688 66.05729 236.23438 65.21354Q235.4375 64.36979 235.4375 62.854164Q235.4375 61.291664 236.25 60.43229Q237.0625 59.55729 238.34375 59.55729Q239.59375 59.55729 240.375 60.40104Q241.17188 61.24479 241.17188 62.791664Q241.17188 62.885414 241.17188 63.072914L236.53125 63.072914Q236.59375 64.104164 237.10938 64.65104Q237.625 65.18229 238.40625 65.18229Q238.98438 65.18229 239.39062 64.885414Q239.8125 64.572914 240.04688 63.916664ZM236.59375 62.21354L240.0625 62.21354Q240.0 61.416664 239.67188 61.02604Q239.15625 60.416664 238.35938 60.416664Q237.625 60.416664 237.125 60.90104Q236.64062 61.385414 236.59375 62.21354Z" fill-rule="nonzero"/><path fill="#ea4335" d="M258.0 56.916668C258.0 56.364384 258.44772 55.916668 259.0 55.916668L269.0 55.916668C269.55228 55.916668 270.0 56.364384 270.0 56.916668L270.0 66.916664C270.0 67.46895 269.55228 67.916664 269.0 67.916664L259.0 67.916664C258.44772 67.916664 258.0 67.46895 258.0 66.916664Z" fill-rule="nonzero"/><path fill="#1a1a1a" d="M284.5625 57.322914L285.70312 57.322914L285.70312 62.291664Q285.70312 63.58854 285.40625 64.354164Q285.10938 65.104164 284.34375 65.58854Q283.57812 66.05729 282.34375 66.05729Q281.14062 66.05729 280.35938 65.65104Q279.59375 65.229164 279.26562 64.447914Q278.9375 63.65104 278.9375 62.291664L278.9375 57.322914L280.07812 57.322914L280.07812 62.27604Q280.07812 63.40104 280.28125 63.93229Q280.5 64.46354 281.0 64.760414Q281.51562 65.041664 282.25 65.041664Q283.5 65.041664 284.03125 64.479164Q284.5625 63.90104 284.5625 62.27604L284.5625 57.322914ZM287.79688 65.916664L287.79688 59.697914L288.73438 59.697914L288.73438 60.572914Q289.42188 59.55729 290.71875 59.55729Q291.28125 59.55729 291.75 59.760414Q292.23438 59.96354 292.46875 60.291664Q292.70312 60.61979 292.79688 61.05729Q292.84375 61.354164 292.84375 62.08854L292.84375 65.916664L291.79688 65.916664L291.79688 62.135414Q291.79688 61.479164 291.67188 61.166664Q291.54688 60.854164 291.23438 60.666664Q290.92188 60.46354 290.5 60.46354Q289.82812 60.46354 289.32812 60.90104Q288.84375 61.322914 288.84375 62.510414L288.84375 65.916664L287.79688 65.916664ZM294.79688 58.541664L294.79688 57.322914L295.85938 57.322914L295.85938 58.541664L294.79688 58.541664ZM294.79688 65.916664L294.79688 59.697914L295.85938 59.697914L295.85938 65.916664L294.79688 65.916664ZM298.04688 65.916664L298.04688 60.510414L297.10938 60.510414L297.10938 59.697914L298.04688 59.697914L298.04688 59.02604Q298.04688 58.40104 298.15625 58.104164Q298.3125 57.68229 298.6875 57.43229Q299.07812 57.18229 299.76562 57.18229Q300.21875 57.18229 300.75 57.291664L300.59375 58.197914Q300.26562 58.15104 299.96875 58.15104Q299.48438 58.15104 299.28125 58.354164Q299.09375 58.55729 299.09375 59.11979L299.09375 59.697914L300.3125 59.697914L300.3125 60.510414L299.09375 60.510414L299.09375 65.916664L298.04688 65.916664ZM300.40625 62.80729Q300.40625 61.072914 301.35938 60.24479Q302.15625 59.55729 303.3125 59.55729Q304.59375 59.55729 305.40625 60.40104Q306.23438 61.229164 306.23438 62.71354Q306.23438 63.916664 305.875 64.604164Q305.51562 65.291664 304.8125 65.68229Q304.125 66.05729 303.3125 66.05729Q302.01562 66.05729 301.20312 65.229164Q300.40625 64.385414 300.40625 62.80729ZM301.48438 62.80729Q301.48438 63.99479 302.0 64.58854Q302.53125 65.18229 303.3125 65.18229Q304.10938 65.18229 304.625 64.58854Q305.14062 63.99479 305.14062 62.77604Q305.14062 61.61979 304.60938 61.02604Q304.09375 60.43229 303.3125 60.43229Q302.53125 60.43229 302.0 61.02604Q301.48438 61.604164 301.48438 62.80729ZM307.78125 65.916664L307.78125 59.697914L308.73438 59.697914L308.73438 60.635414Q309.09375 59.979164 309.39062 59.77604Q309.70312 59.55729 310.07812 59.55729Q310.60938 59.55729 311.15625 59.885414L310.79688 60.86979Q310.40625 60.635414 310.03125 60.635414Q309.67188 60.635414 309.39062 60.854164Q309.125 61.05729 309.01562 61.43229Q308.82812 61.99479 308.82812 62.65104L308.82812 65.916664L307.78125 65.916664ZM311.79688 65.916664L311.79688 59.697914L312.73438 59.697914L312.73438 60.572914Q313.03125 60.104164 313.51562 59.83854Q314.0 59.55729 314.625 59.55729Q315.3125 59.55729 315.75 59.83854Q316.20312 60.11979 316.375 60.635414Q317.125 59.55729 318.29688 59.55729Q319.23438 59.55729 319.71875 60.072914Q320.21875 60.572914 320.21875 61.65104L320.21875 65.916664L319.17188 65.916664L319.17188 61.99479Q319.17188 61.36979 319.0625 61.08854Q318.96875 60.80729 318.70312 60.635414Q318.4375 60.46354 318.0625 60.46354Q317.40625 60.46354 316.96875 60.90104Q316.54688 61.33854 316.54688 62.30729L316.54688 65.916664L315.48438 65.916664L315.48438 61.86979Q315.48438 61.166664 315.21875 60.822914Q314.96875 60.46354 314.39062 60.46354Q313.9375 60.46354 313.5625 60.697914Q313.1875 60.93229 313.01562 61.385414Q312.84375 61.83854 312.84375 62.68229L312.84375 65.916664L311.79688 65.916664Z" fill-rule="nonzero"/><path fill="#fbbc04" d="M338.0 56.916668C338.0 56.364384 338.44772 55.916668 339.0 55.916668L349.0 55.916668C349.55228 55.916668 350.0 56.364384 350.0 56.916668L350.0 66.916664C350.0 67.46895 349.55228 67.916664 349.0 67.916664L339.0 67.916664C338.44772 67.916664 338.0 67.46895 338.0 66.916664Z" fill-rule="nonzero"/><path fill="#1a1a1a" d="M365.0625 62.90104L366.1875 63.197914Q365.82812 64.58854 364.90625 65.322914Q363.98438 66.05729 362.64062 66.05729Q361.25 66.05729 360.375 65.49479Q359.5 64.93229 359.04688 63.86979Q358.59375 62.791664 358.59375 61.55729Q358.59375 60.21354 359.10938 59.21354Q359.625 58.21354 360.5625 57.697914Q361.51562 57.18229 362.65625 57.18229Q363.9375 57.18229 364.8125 57.83854Q365.70312 58.49479 366.04688 59.68229L364.92188 59.947914Q364.625 59.010414 364.04688 58.58854Q363.48438 58.15104 362.625 58.15104Q361.64062 58.15104 360.96875 58.635414Q360.3125 59.104164 360.03125 59.90104Q359.76562 60.697914 359.76562 61.55729Q359.76562 62.65104 360.07812 63.46354Q360.40625 64.27604 361.07812 64.68229Q361.75 65.08854 362.54688 65.08854Q363.5 65.08854 364.15625 64.541664Q364.82812 63.99479 365.0625 62.90104ZM367.40625 62.80729Q367.40625 61.072914 368.35938 60.24479Q369.15625 59.55729 370.3125 59.55729Q371.59375 59.55729 372.40625 60.40104Q373.23438 61.229164 373.23438 62.71354Q373.23438 63.916664 372.875 64.604164Q372.51562 65.291664 371.8125 65.68229Q371.125 66.05729 370.3125 66.05729Q369.01562 66.05729 368.20312 65.229164Q367.40625 64.385414 367.40625 62.80729ZM368.48438 62.80729Q368.48438 63.99479 369.0 64.58854Q369.53125 65.18229 370.3125 65.18229Q371.10938 65.18229 371.625 64.58854Q372.14062 63.99479 372.14062 62.77604Q372.14062 61.61979 371.60938 61.02604Q371.09375 60.43229 370.3125 60.43229Q369.53125 60.43229 369.0 61.02604Q368.48438 61.604164 368.48438 62.80729ZM374.79688 65.916664L374.79688 57.322914L375.84375 57.322914L375.84375 60.40104Q376.57812 59.55729 377.70312 59.55729Q378.40625 59.55729 378.90625 59.83854Q379.42188 60.104164 379.64062 60.58854Q379.85938 61.05729 379.85938 61.979164L379.85938 65.916664L378.8125 65.916664L378.8125 61.979164Q378.8125 61.18229 378.46875 60.822914Q378.125 60.46354 377.5 60.46354Q377.03125 60.46354 376.60938 60.71354Q376.20312 60.947914 376.01562 61.36979Q375.84375 61.77604 375.84375 62.510414L375.84375 65.916664L374.79688 65.916664ZM386.04688 63.916664L387.14062 64.041664Q386.89062 64.99479 386.1875 65.52604Q385.48438 66.05729 384.40625 66.05729Q383.04688 66.05729 382.23438 65.21354Q381.4375 64.36979 381.4375 62.854164Q381.4375 61.291664 382.25 60.43229Q383.0625 59.55729 384.34375 59.55729Q385.59375 59.55729 386.375 60.40104Q387.17188 61.24479 387.17188 62.791664Q387.17188 62.885414 387.17188 63.072914L382.53125 63.072914Q382.59375 64.104164 383.10938 64.65104Q383.625 65.18229 384.40625 65.18229Q384.98438 65.18229 385.39062 64.885414Q385.8125 64.572914 386.04688 63.916664ZM382.59375 62.21354L386.0625 62.21354Q386.0 61.416664 385.67188 61.02604Q385.15625 60.416664 384.35938 60.416664Q383.625 60.416664 383.125 60.90104Q382.64062 61.385414 382.59375 62.21354ZM388.78125 65.916664L388.78125 59.697914L389.73438 59.697914L389.73438 60.635414Q390.09375 59.979164 390.39062 59.77604Q390.70312 59.55729 391.07812 59.55729Q391.60938 59.55729 392.15625 59.885414L391.79688 60.86979Q391.40625 60.635414 391.03125 60.635414Q390.67188 60.635414 390.39062 60.854164Q390.125 61.05729 390.01562 61.43229Q389.82812 61.99479 389.82812 62.65104L389.82812 65.916664L388.78125 65.916664ZM397.04688 63.916664L398.14062 64.041664Q397.89062 64.99479 397.1875 65.52604Q396.48438 66.05729 395.40625 66.05729Q394.04688 66.05729 393.23438 65.21354Q392.4375 64.36979 392.4375 62.854164Q392.4375 61.291664 393.25 60.43229Q394.0625 59.55729 395.34375 59.55729Q396.59375 59.55729 397.375 60.40104Q398.17188 61.24479 398.17188 62.791664Q398.17188 62.885414 398.17188 63.072914L393.53125 63.072914Q393.59375 64.104164 394.10938 64.65104Q394.625 65.18229 395.40625 65.18229Q395.98438 65.18229 396.39062 64.885414Q396.8125 64.572914 397.04688 63.916664ZM393.59375 62.21354L397.0625 62.21354Q397.0 61.416664 396.67188 61.02604Q396.15625 60.416664 395.35938 60.416664Q394.625 60.416664 394.125 60.90104Q393.64062 61.385414 393.59375 62.21354ZM399.79688 65.916664L399.79688 59.697914L400.73438 59.697914L400.73438 60.572914Q401.42188 59.55729 402.71875 59.55729Q403.28125 59.55729 403.75 59.760414Q404.23438 59.96354 404.46875 60.291664Q404.70312 60.61979 404.79688 61.05729Q404.84375 61.354164 404.84375 62.08854L404.84375 65.916664L403.79688 65.916664L403.79688 62.135414Q403.79688 61.479164 403.67188 61.166664Q403.54688 60.854164 403.23438 60.666664Q402.92188 60.46354 402.5 60.46354Q401.82812 60.46354 401.32812 60.90104Q400.84375 61.322914 400.84375 62.510414L400.84375 65.916664L399.79688 65.916664ZM409.09375 64.979164L409.25 65.90104Q408.79688 65.99479 408.45312 65.99479Q407.875 65.99479 407.5625 65.822914Q407.25 65.635414 407.10938 65.33854Q406.98438 65.041664 406.98438 64.08854L406.98438 60.510414L406.21875 60.510414L406.21875 59.697914L406.98438 59.697914L406.98438 58.15104L408.03125 57.52604L408.03125 59.697914L409.09375 59.697914L409.09375 60.510414L408.03125 60.510414L408.03125 64.15104Q408.03125 64.604164 408.07812 64.729164Q408.14062 64.854164 408.26562 64.93229Q408.39062 65.010414 408.625 65.010414Q408.8125 65.010414 409.09375 64.979164Z" fill-rule="nonzero"/><path fill="#757575" d="M24.190624 37.55L18.64375 23.2375L20.690624 23.2375L24.409374 33.628124Q24.8625 34.878124 25.159374 35.971874Q25.4875 34.8 25.940624 33.628124L29.8 23.2375L31.7375 23.2375L26.128124 37.55L24.190624 37.55ZM32.878124 25.253124L32.878124 23.2375L34.64375 23.2375L34.64375 25.253124L32.878124 25.253124ZM32.878124 37.55L32.878124 27.175L34.64375 27.175L34.64375 37.55L32.878124 37.55ZM36.159374 34.45625L37.909374 34.175Q38.05 35.221874 38.721874 35.784374Q39.39375 36.33125 40.596874 36.33125Q41.8 36.33125 42.378124 35.846874Q42.971874 35.346874 42.971874 34.690624Q42.971874 34.096874 42.45625 33.753124Q42.096874 33.51875 40.659374 33.159374Q38.721874 32.659374 37.971874 32.315624Q37.2375 31.95625 36.846874 31.33125Q36.45625 30.690624 36.45625 29.925Q36.45625 29.2375 36.76875 28.64375Q37.096874 28.05 37.64375 27.659374Q38.05 27.3625 38.753124 27.159374Q39.471874 26.940624 40.284374 26.940624Q41.503124 26.940624 42.425 27.3Q43.346874 27.64375 43.784374 28.253124Q44.221874 28.846874 44.39375 29.846874L42.675 30.08125Q42.55 29.284374 41.9875 28.846874Q41.425 28.39375 40.409374 28.39375Q39.190624 28.39375 38.675 28.8Q38.159374 29.190624 38.159374 29.721874Q38.159374 30.065624 38.378124 30.346874Q38.58125 30.628124 39.05 30.815624Q39.315624 30.909374 40.596874 31.253124Q42.471874 31.753124 43.20625 32.08125Q43.940624 32.39375 44.3625 33.003124Q44.784374 33.596874 44.784374 34.503124Q44.784374 35.378124 44.26875 36.159374Q43.753124 36.940624 42.784374 37.3625Q41.815624 37.784374 40.596874 37.784374Q38.58125 37.784374 37.51875 36.940624Q36.45625 36.096874 36.159374 34.45625ZM53.659374 37.55L53.659374 36.01875Q52.45625 37.784374 50.378124 37.784374Q49.45625 37.784374 48.659374 37.440624Q47.8625 37.08125 47.471874 36.55Q47.096874 36.01875 46.940624 35.2375Q46.83125 34.721874 46.83125 33.596874L46.83125 27.175L48.58125 27.175L48.58125 32.925Q48.58125 34.3 48.690624 34.784374Q48.8625 35.471874 49.39375 35.878124Q49.940624 36.26875 50.721874 36.26875Q51.51875 36.26875 52.20625 35.8625Q52.909374 35.45625 53.190624 34.76875Q53.4875 34.065624 53.4875 32.7375L53.4875 27.175L55.2375 27.175L55.2375 37.55L53.659374 37.55ZM63.64375 36.26875Q62.659374 37.096874 61.753124 37.440624Q60.846874 37.784374 59.815624 37.784374Q58.1125 37.784374 57.190624 36.95625Q56.26875 36.1125 56.26875 34.815624Q56.26875 34.05 56.6125 33.425Q56.971874 32.8 57.534374 32.425Q58.096874 32.034374 58.8 31.83125Q59.315624 31.70625 60.3625 31.565624Q62.4875 31.315624 63.4875 30.971874Q63.503124 30.6125 63.503124 30.503124Q63.503124 29.440624 63.003124 28.9875Q62.33125 28.39375 61.003124 28.39375Q59.753124 28.39375 59.159374 28.83125Q58.58125 29.26875 58.3 30.378124L56.58125 30.14375Q56.815624 29.034374 57.346874 28.3625Q57.878124 27.675 58.89375 27.315624Q59.909374 26.940624 61.253124 26.940624Q62.58125 26.940624 63.409374 27.253124Q64.2375 27.565624 64.62813 28.05Q65.01875 28.51875 65.175 29.2375Q65.26875 29.690624 65.26875 30.8625L65.26875 33.20625Q65.26875 35.659374 65.37813 36.315624Q65.4875 36.95625 65.83125 37.55L63.9875 37.55Q63.721874 37.003124 63.64375 36.26875ZM63.4875 32.346874Q62.534374 32.7375 60.6125 33.003124Q59.534374 33.159374 59.08125 33.3625Q58.64375 33.55 58.39375 33.925Q58.14375 34.3 58.14375 34.76875Q58.14375 35.471874 58.675 35.940624Q59.20625 36.409374 60.2375 36.409374Q61.253124 36.409374 62.034374 35.971874Q62.83125 35.51875 63.20625 34.753124Q63.4875 34.14375 63.4875 32.9875L63.4875 32.346874ZM67.83125 37.55L67.83125 23.2375L69.58125 23.2375L69.58125 37.55L67.83125 37.55ZM71.87813 25.253124L71.87813 23.2375L73.64375 23.2375L73.64375 25.253124L71.87813 25.253124ZM71.87813 37.55L71.87813 27.175L73.64375 27.175L73.64375 37.55L71.87813 37.55ZM74.94063 37.55L74.94063 36.128124L81.55 28.55Q80.425 28.596874 79.56563 28.596874L75.33125 28.596874L75.33125 27.175L83.81563 27.175L83.81563 28.346874L78.19063 34.925L77.1125 36.128124Q78.28438 36.034374 79.33125 36.034374L84.12813 36.034374L84.12813 37.55L74.94063 37.55ZM91.97188 34.20625L93.78438 34.440624Q93.3625 36.01875 92.19063 36.909374Q91.03438 37.784374 89.22188 37.784374Q86.95625 37.784374 85.6125 36.39375Q84.28438 34.9875 84.28438 32.45625Q84.28438 29.83125 85.62813 28.39375Q86.97188 26.940624 89.12813 26.940624Q91.20625 26.940624 92.51875 28.3625Q93.84688 29.76875 93.84688 32.346874Q93.84688 32.503124 93.83125 32.815624L86.09688 32.815624Q86.19063 34.51875 87.06563 35.425Q87.94063 36.33125 89.2375 36.33125Q90.20625 36.33125 90.87813 35.83125Q91.56563 35.315624 91.97188 34.20625ZM86.19063 31.3625L91.9875 31.3625Q91.87813 30.065624 91.33125 29.409374Q90.4875 28.39375 89.14375 28.39375Q87.94063 28.39375 87.1125 29.20625Q86.28438 30.003124 86.19063 31.3625ZM101.51875 30.58125Q101.51875 27.01875 103.425 25.003124Q105.34688 22.971874 108.37813 22.971874Q110.3625 22.971874 111.94063 23.925Q113.53438 24.878124 114.3625 26.58125Q115.20625 28.26875 115.20625 30.409374Q115.20625 32.58125 114.33125 34.3Q113.45625 36.01875 111.83125 36.909374Q110.22188 37.8 108.3625 37.8Q106.34688 37.8 104.75313 36.83125Q103.15938 35.846874 102.33125 34.159374Q101.51875 32.45625 101.51875 30.58125ZM103.47188 30.6125Q103.47188 33.190624 104.8625 34.690624Q106.25313 36.175 108.34688 36.175Q110.4875 36.175 111.8625 34.675Q113.25313 33.159374 113.25313 30.39375Q113.25313 28.659374 112.65938 27.3625Q112.08125 26.05 110.94063 25.33125Q109.8 24.6125 108.37813 24.6125Q106.37813 24.6125 104.925 26.003124Q103.47188 27.378124 103.47188 30.6125ZM117.8625 37.55L117.8625 27.175L119.45625 27.175L119.45625 28.659374Q120.59688 26.940624 122.75313 26.940624Q123.69063 26.940624 124.47188 27.284374Q125.26875 27.6125 125.65938 28.159374Q126.05 28.70625 126.20625 29.45625Q126.3 29.95625 126.3 31.175L126.3 37.55L124.53438 37.55L124.53438 31.2375Q124.53438 30.159374 124.33125 29.628124Q124.12813 29.096874 123.59688 28.784374Q123.08125 28.471874 122.37813 28.471874Q121.25313 28.471874 120.44063 29.190624Q119.62813 29.89375 119.62813 31.878124L119.62813 37.55L117.8625 37.55Z" fill-rule="nonzero"/></svg>